#N canvas 810 270 501 365 10;
#X obj 221 227 dac~;
#X obj 222 172 catch~ signal1;
#X obj 243 199 catch~ signal2;
#X msg 11 95 2;
#N canvas 30 312 294 324 sf_field 1;
#X obj 10 0 sf_sampler 10000;
#X obj 10 20 sf_sampler 10001;
#X obj 10 40 sf_sampler 10050;
#X obj 10 60 sf_sampler 10051;
#X restore 8 39 pd sf_field;
#N canvas 438 535 736 515 gen_sf_samplers 0;
#X obj 90 21 inlet;
#X obj 105 65 r number_of_speakers;
#X obj 90 95 uzi;
#X obj 90 309 s pd-sf_field;
#X obj 90 122 f 10000;
#X msg 128 95 10000;
#X obj 142 123 + 50;
#X text 173 96 init sf_port;
#X text 175 122 port distance;
#X obj 90 153 t b f b f;
#X obj 90 225 f;
#X obj 121 225 + 20;
#X obj 90 255 pack f f;
#X msg 167 176 0;
#X obj 107 181 + 1;
#X obj 90 42 t b b b b;
#X msg 220 205 clear;
#X msg 90 279 obj 10 \$1 sf_sampler \$2;
#X connect 0 0 15 0;
#X connect 1 0 2 1;
#X connect 2 0 4 0;
#X connect 4 0 6 0;
#X connect 4 0 9 0;
#X connect 5 0 4 1;
#X connect 6 0 4 1;
#X connect 9 0 10 0;
#X connect 9 1 14 0;
#X connect 9 2 10 0;
#X connect 9 3 12 1;
#X connect 10 0 11 0;
#X connect 10 0 12 0;
#X connect 11 0 10 1;
#X connect 12 0 17 0;
#X connect 13 0 10 1;
#X connect 14 0 12 1;
#X connect 15 0 2 0;
#X connect 15 1 5 0;
#X connect 15 2 13 0;
#X connect 15 3 16 0;
#X connect 16 0 3 0;
#X connect 17 0 3 0;
#X restore 12 161 pd gen_sf_samplers;
#X obj 12 140 bng 15 250 50 0 empty empty empty 17 7 0 10 -262144 -1
-1;
#X obj 11 116 s number_of_speakers;
#N canvas 148 113 740 559 matrix 0;
#X floatatom 172 189 4 0 0 0 - - -, f 4;
#X msg 259 180 1 1;
#X msg 310 178 1 2;
#X msg 362 177 1 3;
#X msg 413 176 1 4;
#X obj 232 121 ctlin 1;
#X obj 232 147 t f b;
#X obj 283 146 t f b;
#X obj 283 120 ctlin 2;
#X obj 335 147 t f b;
#X obj 386 146 t f b;
#X obj 335 121 ctlin 3;
#X obj 386 120 ctlin 4;
#X obj 172 275 mtx_element 4 4;
#X obj 69 457 env~;
#X floatatom 69 481 4 0 0 0 - - -, f 4;
#X obj 112 456 env~;
#X floatatom 112 480 4 0 0 0 - - -, f 4;
#X obj 153 457 env~;
#X floatatom 153 481 4 0 0 0 - - -, f 4;
#X floatatom 215 389 4 0 0 0 - - -, f 4;
#X obj 194 458 env~;
#X floatatom 194 482 4 0 0 0 - - -, f 4;
#X obj 172 230 / 127;
#X obj 69 429 matrix~ 4 4 10 .......;
#X obj 68 316 osc~ 200;
#X obj 93 341 osc~ 400;
#X obj 119 366 osc~ 600;
#X obj 147 391 osc~ 800;
#X text 249 389 fade time (ms);
#X text 230 93 midi controller;
#X text 437 197 ...;
#X text 437 207 ...;
#X text 375 239 should be 4x4 matrix probably automatically generated
;
#X text 29 19 needs iemmatrix lib;
#X connect 0 0 23 0;
#X connect 1 0 13 1;
#X connect 2 0 13 1;
#X connect 3 0 13 1;
#X connect 4 0 13 1;
#X connect 5 0 6 0;
#X connect 6 0 0 0;
#X connect 6 1 1 0;
#X connect 7 0 0 0;
#X connect 7 1 2 0;
#X connect 8 0 7 0;
#X connect 9 0 0 0;
#X connect 9 1 3 0;
#X connect 10 0 0 0;
#X connect 10 1 4 0;
#X connect 11 0 9 0;
#X connect 12 0 10 0;
#X connect 13 0 24 4;
#X connect 14 0 15 0;
#X connect 16 0 17 0;
#X connect 18 0 19 0;
#X connect 20 0 24 5;
#X connect 21 0 22 0;
#X connect 23 0 13 0;
#X connect 24 0 14 0;
#X connect 24 1 16 0;
#X connect 24 2 18 0;
#X connect 24 3 21 0;
#X connect 25 0 24 0;
#X connect 26 0 24 1;
#X connect 27 0 24 2;
#X connect 28 0 24 3;
#X restore 9 63 pd matrix;
#X connect 1 0 0 0;
#X connect 2 0 0 1;
#X connect 3 0 7 0;
#X connect 6 0 5 0;
