#N canvas 687 209 431 403 10;
#N canvas 0 50 620 313 in->out 0;
#X obj 35 31 adc~ 1 2;
#X obj 126 47 tgl 15 0 empty empty empty 17 7 0 10 -262144 -1 -1 0
1;
#X obj 34 100 *~;
#X obj 78 97 *~;
#X obj 33 136 dac~ 1 2;
#X obj 244 47 tgl 15 0 empty empty empty 17 7 0 10 -262144 -1 -1 0
1;
#X obj 152 100 *~;
#X obj 196 97 *~;
#X obj 151 136 dac~ 1 2;
#X obj 153 31 adc~ 3;
#X obj 370 47 tgl 15 0 empty empty empty 17 7 0 10 -262144 -1 -1 0
1;
#X obj 278 100 *~;
#X obj 322 97 *~;
#X obj 277 136 dac~ 1 2;
#X obj 279 31 adc~ 4;
#X text 34 8 audio in;
#X text 152 6 zynadd;
#X text 277 6 fluid;
#X obj 501 50 tgl 15 0 empty empty empty 17 7 0 10 -262144 -1 -1 0
1;
#X obj 409 103 *~;
#X obj 453 100 *~;
#X obj 408 139 dac~ 1 2;
#X text 408 9 looper;
#X obj 410 34 adc~ 5;
#X connect 0 0 2 0;
#X connect 0 1 3 0;
#X connect 1 0 2 1;
#X connect 1 0 3 1;
#X connect 2 0 4 0;
#X connect 3 0 4 1;
#X connect 5 0 6 1;
#X connect 5 0 7 1;
#X connect 6 0 8 0;
#X connect 7 0 8 1;
#X connect 9 0 6 0;
#X connect 9 0 7 0;
#X connect 10 0 11 1;
#X connect 10 0 12 1;
#X connect 11 0 13 0;
#X connect 12 0 13 1;
#X connect 14 0 11 0;
#X connect 14 0 12 0;
#X connect 18 0 19 1;
#X connect 18 0 20 1;
#X connect 19 0 21 0;
#X connect 20 0 21 1;
#X connect 23 0 19 0;
#X connect 23 0 20 0;
#X restore 25 75 pd in->out;
#N canvas 0 50 629 322 out->looper 0;
#X obj 26 52 adc~ 1 2;
#X obj 117 68 tgl 15 0 empty empty empty 17 7 0 10 -262144 -1 -1 0
1;
#X obj 25 121 *~;
#X obj 70 118 *~;
#X text 21 32 audio > looper;
#X obj 244 67 tgl 15 0 empty empty empty 17 7 0 10 -262144 -1 -1 0
1;
#X obj 153 117 *~;
#X obj 196 117 *~;
#X obj 153 51 adc~ 3;
#X text 148 31 zynadd > looper;
#X obj 378 63 tgl 15 0 empty empty empty 17 7 0 10 -262144 -1 -1 0
1;
#X obj 286 116 *~;
#X obj 330 113 *~;
#X text 282 27 fluid > looper;
#X obj 287 47 adc~ 4;
#X text 420 26 pd > looper;
#X obj 24 157 dac~ 3 4;
#X obj 151 156 dac~ 3 4;
#X obj 285 152 dac~ 3 4;
#X connect 0 0 2 0;
#X connect 0 1 3 0;
#X connect 1 0 2 1;
#X connect 1 0 3 1;
#X connect 2 0 16 0;
#X connect 3 0 16 1;
#X connect 5 0 6 1;
#X connect 5 0 7 1;
#X connect 6 0 17 0;
#X connect 7 0 17 1;
#X connect 8 0 6 0;
#X connect 8 0 7 0;
#X connect 10 0 11 1;
#X connect 10 0 12 1;
#X connect 11 0 18 0;
#X connect 12 0 18 1;
#X connect 14 0 11 0;
#X connect 14 0 12 0;
#X restore 25 99 pd out->looper;
#N canvas 0 50 450 300 looper-midi 0;
#X obj 51 149 ctlout 1 33;
#X obj 51 63 tgl 15 0 empty empty empty 17 7 0 10 -262144 -1 -1 0 1
;
#X obj 51 83 sel 1;
#X msg 51 107 127;
#X msg 80 107 0;
#X obj 134 62 tgl 15 0 empty empty empty 17 7 0 10 -262144 -1 -1 0
1;
#X obj 134 82 sel 1;
#X msg 134 106 127;
#X msg 163 106 0;
#X obj 134 148 ctlout 2 33;
#X obj 215 61 tgl 15 0 empty empty empty 17 7 0 10 -262144 -1 -1 0
1;
#X obj 215 81 sel 1;
#X msg 215 105 127;
#X msg 244 105 0;
#X obj 298 60 tgl 15 0 empty empty empty 17 7 0 10 -262144 -1 -1 0
1;
#X obj 298 80 sel 1;
#X msg 298 104 127;
#X msg 327 104 0;
#X obj 215 147 ctlout 3 33;
#X obj 298 146 ctlout 4 33;
#X text 46 173 rec;
#X text 135 174 overdub;
#X text 221 168 undo;
#X text 300 177 redo;
#X obj 215 41 bng 15 250 50 0 empty empty empty 17 7 0 10 -262144 -1
-1;
#X obj 300 40 bng 15 250 50 0 empty empty empty 17 7 0 10 -262144 -1
-1;
#X connect 1 0 2 0;
#X connect 2 0 3 0;
#X connect 2 1 4 0;
#X connect 3 0 0 0;
#X connect 4 0 0 0;
#X connect 5 0 6 0;
#X connect 6 0 7 0;
#X connect 6 1 8 0;
#X connect 7 0 9 0;
#X connect 8 0 9 0;
#X connect 10 0 11 0;
#X connect 11 0 12 0;
#X connect 11 1 13 0;
#X connect 12 0 18 0;
#X connect 13 0 18 0;
#X connect 14 0 15 0;
#X connect 15 0 16 0;
#X connect 15 1 17 0;
#X connect 16 0 19 0;
#X connect 17 0 19 0;
#X connect 24 0 10 0;
#X connect 25 0 14 0;
#X restore 25 124 pd looper-midi;
#N canvas 167 98 350 369 test-fluid-zynadd 0;
#X text 111 20 1..16 -> zyn;
#X text 110 34 17..32 -> fluid;
#X text 110 49 33..48 -> looper;
#X obj 38 121 metro 500;
#X obj 38 207 makenote 64 250;
#X obj 38 102 tgl 15 0 empty empty empty 0 -6 0 8 -262144 -1 -1 0 1
;
#X obj 38 182 + 24;
#X obj 38 153 random 48;
#X obj 38 284 noteout;
#X msg 147 231 1;
#X msg 183 231 17;
#X msg 218 233 33;
#X obj 147 147 metro 2000;
#X obj 147 174 tgl 15 0 empty empty empty 17 7 0 10 -262144 -1 -1 0
1;
#X obj 147 199 sel 1;
#X connect 3 0 7 0;
#X connect 4 0 8 0;
#X connect 4 1 8 1;
#X connect 5 0 3 0;
#X connect 5 0 12 0;
#X connect 6 0 4 0;
#X connect 7 0 6 0;
#X connect 9 0 8 2;
#X connect 10 0 8 2;
#X connect 11 0 8 2;
#X connect 12 0 13 0;
#X connect 13 0 14 0;
#X connect 14 0 9 0;
#X connect 14 1 10 0;
#X restore 25 150 pd test-fluid-zynadd;
#X obj 247 53 loadbang;
#X msg 247 79 \; pd dsp 1;
#X obj 244 177 dac~;
#X obj 245 122 catch~ signalL;
#X obj 266 149 catch~ signalR;
#N canvas 312 206 305 316 sf_sampler 0;
#N canvas 315 539 294 324 sf_field 0;
#X restore 8 39 pd sf_field;
#N canvas 193 149 495 553 gen_sf_samplers 0;
#X obj 75 16 inlet;
#X obj 90 95 uzi;
#X obj 90 404 s pd-sf_field;
#X obj 90 122 f 10000;
#X msg 129 98 10000;
#X obj 142 123 + 50;
#X text 173 96 init sf_port;
#X text 175 122 port distance;
#X obj 90 153 t b f b f;
#X obj 223 233 f;
#X obj 223 255 pack f f;
#X msg 219 161 0, f 1;
#X obj 135 328 + 1;
#X msg 246 159 clear;
#X obj 105 65 r number_of_samplers;
#X msg 223 275 obj 10 \$1 sf_samplerL \$2;
#X obj 90 348 pack f f;
#X msg 90 372 obj 10 \$1 sf_samplerR \$2;
#X obj 90 306 f;
#X obj 119 306 + 20;
#X obj 250 233 + 40;
#X obj 75 37 t b b b b b;
#X msg 75 432 \; pd-dummydsp obj 10 10 osc~ \, clear;
#X text 73 463 necessary to start audio in last gen. object / wtf?
;
#X connect 0 0 21 0;
#X connect 1 0 3 0;
#X connect 3 0 5 0;
#X connect 3 0 8 0;
#X connect 4 0 3 1;
#X connect 5 0 3 1;
#X connect 8 0 18 0;
#X connect 8 1 12 0;
#X connect 8 2 9 0;
#X connect 8 3 10 1;
#X connect 9 0 10 0;
#X connect 9 0 19 0;
#X connect 9 0 20 0;
#X connect 10 0 15 0;
#X connect 11 0 9 1;
#X connect 11 0 18 1;
#X connect 12 0 16 1;
#X connect 13 0 2 0;
#X connect 14 0 1 1;
#X connect 15 0 2 0;
#X connect 16 0 17 0;
#X connect 17 0 2 0;
#X connect 18 0 16 0;
#X connect 18 0 19 0;
#X connect 19 0 18 1;
#X connect 20 0 9 1;
#X connect 21 0 22 0;
#X connect 21 1 1 0;
#X connect 21 2 4 0;
#X connect 21 3 11 0;
#X connect 21 4 13 0;
#X restore 104 197 pd gen_sf_samplers;
#X obj 107 41 netreceive 60000;
#X obj 122 63 print TCP:;
#X floatatom 200 63 5 0 0 0 - - -, f 5;
#X obj 107 85 route sf_sum;
#X obj 107 105 t b f;
#X obj 134 158 s number_of_samplers;
#X floatatom 153 126 5 0 0 0 - - -, f 5;
#N canvas 313 452 450 300 dummydsp 0;
#X restore 9 68 pd dummydsp;
#X connect 2 0 3 0;
#X connect 2 0 5 0;
#X connect 2 1 4 0;
#X connect 5 0 6 0;
#X connect 6 0 1 0;
#X connect 6 1 7 0;
#X connect 6 1 8 0;
#X restore 25 50 pd sf_sampler;
#N canvas 497 127 740 559 matrix 0;
#X floatatom 70 190 4 0 0 0 - - -, f 4;
#X msg 157 181 1 1;
#X obj 130 122 ctlin 1;
#X obj 130 148 t f b;
#X obj 181 147 t f b;
#X obj 181 121 ctlin 2;
#X obj 233 148 t f b;
#X obj 284 147 t f b;
#X obj 233 122 ctlin 3;
#X obj 284 121 ctlin 4;
#X obj 70 276 mtx_element 4 4;
#X obj 69 457 env~;
#X floatatom 69 481 4 0 0 0 - - -, f 4;
#X obj 111 456 env~;
#X floatatom 111 480 4 0 0 0 - - -, f 4;
#X obj 152 457 env~;
#X floatatom 152 481 4 0 0 0 - - -, f 4;
#X floatatom 239 403 4 0 0 0 - - -, f 4;
#X obj 193 458 env~;
#X floatatom 193 482 4 0 0 0 - - -, f 4;
#X obj 70 231 / 127;
#X text 273 403 fade time (ms);
#X text 128 94 midi controller;
#X text 335 198 ...;
#X text 335 208 ...;
#X text 273 240 should be 4x4 matrix probably automatically generated
;
#X text 29 19 needs iemmatrix lib;
#X obj 69 429 mtx_*~ 4 4 10 .......;
#X obj 94 321 osc~ 200;
#X obj 119 346 osc~ 400;
#X obj 142 371 osc~ 600;
#X obj 168 396 osc~ 800;
#X obj 69 299 t a;
#X msg 208 179 2 1;
#X msg 260 178 3 1;
#X msg 311 177 4 1;
#X obj 23 338 mtx_print;
#X connect 0 0 20 0;
#X connect 1 0 10 1;
#X connect 2 0 3 0;
#X connect 3 0 0 0;
#X connect 3 1 1 0;
#X connect 4 0 0 0;
#X connect 4 1 33 0;
#X connect 5 0 4 0;
#X connect 6 0 0 0;
#X connect 6 1 34 0;
#X connect 7 0 0 0;
#X connect 7 1 35 0;
#X connect 8 0 6 0;
#X connect 9 0 7 0;
#X connect 10 0 32 0;
#X connect 11 0 12 0;
#X connect 13 0 14 0;
#X connect 15 0 16 0;
#X connect 17 0 27 5;
#X connect 18 0 19 0;
#X connect 20 0 10 0;
#X connect 27 0 11 0;
#X connect 27 1 13 0;
#X connect 27 2 15 0;
#X connect 27 3 18 0;
#X connect 28 0 27 1;
#X connect 29 0 27 2;
#X connect 30 0 27 3;
#X connect 31 0 27 4;
#X connect 32 0 27 0;
#X connect 32 0 36 0;
#X connect 33 0 10 1;
#X connect 34 0 10 1;
#X connect 35 0 10 1;
#X restore 25 328 pd matrix;
#N canvas -38 -265 1034 1005 sampler 0;
#X obj 124 205 textfile;
#X msg 151 183 rewind;
#X obj 124 161 t b b;
#X obj 124 143 bng 15 250 50 0 empty empty empty 17 7 0 10 -262144
-1 -1;
#X obj 111 67 loadbang;
#X obj 124 623 readsf~;
#X obj 125 679 *~;
#X obj 197 628 line~;
#X msg 197 607 \$1 10;
#X floatatom 197 589 5 0 0 0 - - -, f 5;
#X obj 445 277 once;
#X obj 466 258 bng 15 250 50 0 empty empty empty 17 7 0 10 -262144
-1 -1;
#X obj 124 518 f;
#X obj 445 304 spigot;
#X msg 478 280 1;
#X msg 509 280 0;
#X msg 229 478 1;
#X msg 305 481 0;
#X obj 111 89 t b b b b b b b;
#X obj 380 454 bng 15 250 50 0 empty empty empty 17 7 0 10 -262144
-1 -1;
#X msg 445 325 1;
#X obj 514 614 readsf~;
#X obj 515 682 *~;
#X obj 598 623 line~;
#X msg 598 602 \$1 10;
#X floatatom 598 584 5 0 0 0 - - -, f 5;
#X obj 513 512 f;
#X obj 668 442 t b b;
#X msg 668 464 1;
#X msg 737 466 0;
#X obj 124 238 - 99;
#X obj 158 238 - 98;
#X obj 477 327 print play_synchro;
#X obj 527 380 netreceive 33334;
#X obj 143 375 netreceive 33333;
#X obj 530 417 route /track /volume /play /stop;
#X msg 124 537 open /home/pi/data/tracks/\$1.wav;
#X msg 513 545 open /home/pi/data/tracks/\$1.wav;
#X obj 261 661 spigot;
#X obj 370 646 tgl 15 0 empty empty empty 17 7 0 10 -262144 -1 -1 1
1;
#X obj 370 606 loadbang;
#X msg 370 626 1;
#X obj 143 425 route /track /volume /play /stop /pst /loop;
#X msg 258 568 open /home/pi/data/session_\$1_L_.wav;
#X msg 647 583 open /home/pi/data/session_\$1_R_.wav;
#X obj 216 682 print END waiting;
#X obj 261 638 delay 1000;
#X obj 383 532 print delayed_reinit;
#X obj 231 456 t b b b;
#X msg 267 481 0;
#X obj 380 475 t b b b b;
#X obj 124 702 throw~ signalL;
#X obj 514 706 throw~ signalR;
#X connect 0 0 30 0;
#X connect 0 0 31 0;
#X connect 1 0 0 0;
#X connect 2 0 0 0;
#X connect 2 1 1 0;
#X connect 3 0 2 0;
#X connect 4 0 18 0;
#X connect 5 0 6 0;
#X connect 5 1 45 0;
#X connect 5 1 46 0;
#X connect 6 0 51 0;
#X connect 7 0 6 1;
#X connect 8 0 7 0;
#X connect 9 0 8 0;
#X connect 10 0 13 0;
#X connect 11 0 10 1;
#X connect 12 0 36 0;
#X connect 13 0 20 0;
#X connect 13 0 32 0;
#X connect 14 0 13 1;
#X connect 15 0 13 1;
#X connect 16 0 5 0;
#X connect 17 0 39 0;
#X connect 17 0 5 0;
#X connect 18 1 3 0;
#X connect 18 4 10 0;
#X connect 18 5 15 0;
#X connect 19 0 47 0;
#X connect 19 0 50 0;
#X connect 20 0 5 0;
#X connect 20 0 21 0;
#X connect 21 0 22 0;
#X connect 22 0 52 0;
#X connect 23 0 22 1;
#X connect 24 0 23 0;
#X connect 25 0 24 0;
#X connect 26 0 37 0;
#X connect 27 0 28 0;
#X connect 27 1 26 0;
#X connect 28 0 21 0;
#X connect 29 0 21 0;
#X connect 30 0 12 0;
#X connect 31 0 26 0;
#X connect 33 0 35 0;
#X connect 34 0 42 0;
#X connect 35 0 26 1;
#X connect 35 1 25 0;
#X connect 35 2 27 0;
#X connect 35 3 29 0;
#X connect 36 0 5 0;
#X connect 37 0 21 0;
#X connect 38 0 19 0;
#X connect 39 0 38 1;
#X connect 40 0 41 0;
#X connect 41 0 39 0;
#X connect 42 0 12 1;
#X connect 42 1 9 0;
#X connect 42 2 48 0;
#X connect 42 3 17 0;
#X connect 42 4 19 0;
#X connect 42 5 39 0;
#X connect 43 0 5 0;
#X connect 44 0 21 0;
#X connect 46 0 38 0;
#X connect 48 0 16 0;
#X connect 48 1 12 0;
#X connect 48 2 49 0;
#X connect 49 0 39 0;
#X connect 50 0 11 0;
#X connect 50 1 14 0;
#X connect 50 3 41 0;
#X restore 26 307 pd sampler;
#N canvas 395 206 735 511 osc-line 0;
#X obj 118 -1595 *~;
#X obj 118 -1755 osc~;
#X obj 161 -1627 line~;
#X msg 161 -1650 \$1 10;
#X obj 117 -1661 *~;
#X obj 193 -1704 osc~;
#X obj 297 -1596 *~;
#X obj 295 -1757 osc~;
#X obj 340 -1631 line~;
#X msg 340 -1654 \$1 10;
#X obj 296 -1677 *~;
#X obj 371 -1731 osc~;
#X obj 117 -1781 line~;
#X msg 117 -1807 \$1 \$2;
#X obj 117 -1936 unpackOSC;
#X obj 117 -1960 udpreceive 66666;
#X obj 117 -1908 routeOSC /freq1 /volume1 /time1 /lfo1 /freq2 /volume2
/time2 /lfo2;
#X obj 117 -1833 pack f 5000;
#X obj 194 -1776 pack f 5000;
#X obj 295 -1830 pack f 5000;
#X obj 371 -1773 pack f 5000;
#X msg 295 -1806 \$1 \$2;
#X obj 194 -1729 line~;
#X msg 194 -1749 \$1 \$2;
#X obj 371 -1753 line~;
#X obj 295 -1777 line~;
#X obj 119 -1559 throw~ signalL;
#X obj 298 -1560 throw~ signalR;
#X connect 0 0 26 0;
#X connect 1 0 4 0;
#X connect 2 0 0 1;
#X connect 3 0 2 0;
#X connect 4 0 0 0;
#X connect 5 0 4 1;
#X connect 6 0 27 0;
#X connect 7 0 10 0;
#X connect 8 0 6 1;
#X connect 9 0 8 0;
#X connect 10 0 6 0;
#X connect 11 0 10 1;
#X connect 12 0 1 0;
#X connect 13 0 12 0;
#X connect 14 0 16 0;
#X connect 15 0 14 0;
#X connect 16 0 17 0;
#X connect 16 1 3 0;
#X connect 16 2 17 1;
#X connect 16 2 19 1;
#X connect 16 3 18 0;
#X connect 16 4 19 0;
#X connect 16 5 9 0;
#X connect 16 6 18 1;
#X connect 16 6 20 1;
#X connect 16 7 20 0;
#X connect 17 0 13 0;
#X connect 18 0 23 0;
#X connect 19 0 21 0;
#X connect 20 0 24 0;
#X connect 21 0 25 0;
#X connect 22 0 5 0;
#X connect 23 0 22 0;
#X connect 24 0 11 0;
#X connect 25 0 7 0;
#X restore 27 265 pd osc-line;
#N canvas 125 116 913 832 synth 0;
#X floatatom 39 -2234 5 -30 130 0 - - -, f 5;
#X obj 39 -2209 mtof;
#X obj 39 -1964 *~;
#X obj 55 -1990 *~;
#X floatatom 54 -1890 5 0 150 0 - - -, f 5;
#X obj 54 -1868 mtof;
#X obj 54 -1823 pack 0 50;
#X obj 54 -1800 line~;
#X floatatom 54 -1845 7 0 0 0 - - -, f 7;
#X obj 54 -1939 loadbang;
#X obj 41 -1626 freeverb~;
#X obj 272 -1622 freeverb~;
#X obj 40 -1772 moog~;
#X obj 123 -1802 sig~;
#X msg 123 -1850 3;
#X msg 54 -1914 100;
#X msg 54 -1687 freeze \$1;
#X obj 39 -2289 r midi1;
#X obj 91 -1914 r filfr1;
#X obj 123 -1823 r q1;
#X msg 378 -1644 roomsize \$1;
#X msg 289 -1689 freeze \$1;
#X obj 54 -1746 r freeze1;
#X obj 289 -1747 r freeze2;
#X obj 125 -1665 r roomsize1;
#X obj 378 -1665 r roomsize2;
#X obj 40 -1534 *~;
#X obj 56 -1556 line~;
#X msg 56 -1579 \$1 10;
#X obj 271 -1530 *~;
#X obj 287 -1552 line~;
#X msg 287 -1575 \$1 10;
#X obj 56 -1601 r volsynth1;
#X obj 287 -1596 r volsynth2;
#X obj 454 -2040 unpackOSC;
#X obj 454 -2061 udpreceive 44444;
#X obj 469 -1894 s filfr1;
#X obj 485 -1872 s q1;
#X obj 38 -2071 blosc~ pulse;
#X floatatom 273 -2237 5 -30 130 0 - - -, f 5;
#X obj 273 -2216 mtof;
#X obj 271 -1972 *~;
#X obj 287 -2002 *~;
#X obj 272 -2075 blosc~ pulse;
#X obj 273 -2279 r midi2;
#X floatatom 286 -1898 5 0 150 0 - - -, f 5;
#X obj 286 -1876 mtof;
#X obj 286 -1831 pack 0 50;
#X obj 286 -1808 line~;
#X floatatom 286 -1853 7 0 0 0 - - -, f 7;
#X obj 286 -1947 loadbang;
#X obj 272 -1776 moog~;
#X obj 357 -1805 sig~;
#X msg 357 -1854 3;
#X msg 286 -1923 100;
#X obj 318 -1920 r filfr2;
#X obj 357 -1832 r q2;
#X obj 55 -2021 line~;
#X obj 286 -2030 line~;
#X obj 454 -1914 s env1;
#X obj 54 -1709 tgl 15 0 empty empty empty 17 7 0 10 -262144 -1 -1
0 1;
#X msg 123 -1689 wet \$1;
#X msg 176 -1687 dry \$1;
#X obj 123 -1745 r wet1;
#X obj 176 -1709 - 3;
#X obj 54 -2125 *~;
#X obj 39 -2095 +~;
#X obj 54 -2166 osc~;
#X obj 530 -1810 s freeze1;
#X obj 560 -1765 s roomsize1;
#X obj 576 -1741 s volsynth1;
#X obj 728 -1931 s midi1;
#X obj 743 -1907 s midi2;
#X obj 545 -1788 s wet1;
#X obj 499 -1851 s modfreq1;
#X obj 515 -1830 s modrng1;
#X obj 54 -2188 r modfreq1;
#X obj 69 -2146 r modrng1;
#X obj 54 -1726 bng 15 250 50 0 empty empty empty 17 7 0 10 -262144
-1 -1;
#X msg 125 -1645 roomsize \$1;
#X msg 365 -1690 wet \$1;
#X msg 418 -1688 dry \$1;
#X obj 418 -1710 - 3;
#X obj 365 -1747 r wet2;
#X obj 289 -1708 tgl 15 0 empty empty empty 17 7 0 10 -262144 -1 -1
0 1;
#X obj 289 -1725 bng 15 250 50 0 empty empty empty 17 7 0 10 -262144
-1 -1;
#X obj 288 -2127 *~;
#X obj 273 -2097 +~;
#X obj 288 -2168 osc~;
#X obj 288 -2194 r modfreq2;
#X obj 303 -2148 r modrng2;
#X obj 591 -1938 s env2;
#X obj 606 -1919 s filfr2;
#X obj 621 -1897 s q2;
#X obj 637 -1875 s modfreq2;
#X obj 652 -1855 s modrng2;
#X obj 667 -1824 s freeze2;
#X obj 682 -1802 s wet2;
#X obj 698 -1779 s roomsize2;
#X obj 714 -1755 s volsynth2;
#X obj 124 -2073 envgen 60 20 1 0  ;
#X obj 122 -2096 r env1;
#X obj 351 -2103 r env2;
#X obj 353 -2076 envgen 60 20 1 0  ;
#X obj 39 -2265 t b f;
#X obj 273 -2259 t b f;
#X obj 759 -1882 s duration1;
#X obj 773 -1858 s duration2;
#X obj 138 -2152 r duration1;
#X msg 138 -2126 duration \$1;
#X msg 351 -2134 duration \$1;
#X obj 351 -2160 r duration2;
#X msg 437 -2114 0 4.28571 0.875 32.8571 0.2 62.8571 0;
#X obj 437 -2194 loadbang;
#X msg 449 -2170 1200;
#X obj 194 -1782 loadbang;
#X msg 194 -1760 0;
#X obj 454 -2000 routeOSC /env1 /filfr1 /q1 /modfreq1 /modrng1 /freeze1
/wet1 /roomsize1 /volsynth1 /env2 /filfr2 /q2 /modfreq2 /modrng2 /freeze2
/wet2 /roomsize2 /volsynth2 /midi1 /midi2 /duration1 /duration2 /panic
;
#X obj 789 -1936 s panic;
#X obj 194 -2030 r panic;
#X msg 194 -2005 60;
#X msg 194 -1986 100;
#X msg 194 -1967 0 50 1 50;
#X obj 40 -1511 throw~ signalL;
#X obj 271 -1511 throw~ signalR;
#X connect 0 0 1 0;
#X connect 1 0 66 0;
#X connect 2 0 12 0;
#X connect 3 0 2 1;
#X connect 4 0 5 0;
#X connect 5 0 8 0;
#X connect 6 0 7 0;
#X connect 7 0 12 1;
#X connect 8 0 6 0;
#X connect 9 0 15 0;
#X connect 9 0 14 0;
#X connect 10 0 26 0;
#X connect 11 0 29 0;
#X connect 12 0 10 0;
#X connect 13 0 12 2;
#X connect 14 0 13 0;
#X connect 15 0 4 0;
#X connect 16 0 10 0;
#X connect 17 0 104 0;
#X connect 18 0 4 0;
#X connect 19 0 13 0;
#X connect 20 0 11 0;
#X connect 21 0 11 0;
#X connect 22 0 78 0;
#X connect 23 0 85 0;
#X connect 24 0 79 0;
#X connect 25 0 20 0;
#X connect 26 0 123 0;
#X connect 27 0 26 1;
#X connect 28 0 27 0;
#X connect 29 0 124 0;
#X connect 30 0 29 1;
#X connect 31 0 30 0;
#X connect 32 0 28 0;
#X connect 33 0 31 0;
#X connect 34 0 117 0;
#X connect 35 0 34 0;
#X connect 38 0 2 0;
#X connect 39 0 40 0;
#X connect 40 0 87 0;
#X connect 41 0 51 0;
#X connect 42 0 41 1;
#X connect 43 0 41 0;
#X connect 44 0 105 0;
#X connect 45 0 46 0;
#X connect 46 0 49 0;
#X connect 47 0 48 0;
#X connect 48 0 51 1;
#X connect 49 0 47 0;
#X connect 50 0 54 0;
#X connect 50 0 53 0;
#X connect 51 0 11 0;
#X connect 52 0 51 2;
#X connect 53 0 52 0;
#X connect 54 0 45 0;
#X connect 55 0 45 0;
#X connect 56 0 52 0;
#X connect 57 0 3 0;
#X connect 57 0 3 1;
#X connect 58 0 42 0;
#X connect 58 0 42 1;
#X connect 60 0 16 0;
#X connect 61 0 10 0;
#X connect 62 0 10 0;
#X connect 63 0 64 0;
#X connect 63 0 61 0;
#X connect 64 0 62 0;
#X connect 65 0 66 1;
#X connect 66 0 38 0;
#X connect 67 0 65 0;
#X connect 76 0 67 0;
#X connect 77 0 65 1;
#X connect 78 0 60 0;
#X connect 79 0 10 0;
#X connect 80 0 11 0;
#X connect 81 0 11 0;
#X connect 82 0 81 0;
#X connect 83 0 82 0;
#X connect 83 0 80 0;
#X connect 84 0 21 0;
#X connect 85 0 84 0;
#X connect 86 0 87 1;
#X connect 87 0 43 0;
#X connect 88 0 86 0;
#X connect 89 0 88 0;
#X connect 90 0 86 1;
#X connect 100 0 57 0;
#X connect 101 0 100 0;
#X connect 102 0 103 0;
#X connect 103 0 58 0;
#X connect 104 0 100 0;
#X connect 104 1 0 0;
#X connect 105 0 103 0;
#X connect 105 1 39 0;
#X connect 108 0 109 0;
#X connect 109 0 100 0;
#X connect 110 0 103 0;
#X connect 111 0 110 0;
#X connect 112 0 103 0;
#X connect 112 0 100 0;
#X connect 113 0 112 0;
#X connect 113 0 114 0;
#X connect 114 0 110 0;
#X connect 114 0 109 0;
#X connect 115 0 116 0;
#X connect 116 0 61 0;
#X connect 116 0 64 0;
#X connect 116 0 80 0;
#X connect 116 0 82 0;
#X connect 116 0 20 0;
#X connect 116 0 79 0;
#X connect 116 0 60 0;
#X connect 116 0 84 0;
#X connect 116 0 28 0;
#X connect 116 0 31 0;
#X connect 117 0 59 0;
#X connect 117 1 36 0;
#X connect 117 2 37 0;
#X connect 117 3 74 0;
#X connect 117 4 75 0;
#X connect 117 5 68 0;
#X connect 117 6 73 0;
#X connect 117 7 69 0;
#X connect 117 8 70 0;
#X connect 117 9 91 0;
#X connect 117 10 92 0;
#X connect 117 11 93 0;
#X connect 117 12 94 0;
#X connect 117 13 95 0;
#X connect 117 14 96 0;
#X connect 117 15 97 0;
#X connect 117 16 98 0;
#X connect 117 17 99 0;
#X connect 117 18 71 0;
#X connect 117 19 72 0;
#X connect 117 20 106 0;
#X connect 117 21 107 0;
#X connect 117 22 118 0;
#X connect 119 0 120 0;
#X connect 119 0 121 0;
#X connect 119 0 122 0;
#X connect 119 0 15 0;
#X connect 119 0 54 0;
#X connect 119 0 14 0;
#X connect 119 0 53 0;
#X connect 119 0 116 0;
#X connect 120 0 0 0;
#X connect 120 0 39 0;
#X connect 121 0 109 0;
#X connect 121 0 110 0;
#X connect 122 0 100 0;
#X connect 122 0 103 0;
#X restore 26 286 pd synth;
#X text 29 244 todo:;
#X text 27 13 client for raspberry pi;
#X connect 4 0 5 0;
#X connect 7 0 6 0;
#X connect 8 0 6 1;
