#N canvas 369 100 519 508 10;
#X obj 221 227 dac~;
#X obj 222 172 catch~ signal1;
#X obj 243 199 catch~ signal2;
#X msg 11 95 2;
#N canvas 11 238 294 351 sf_field 1;
#X obj 10 0 sf_sampler 10000;
#X obj 10 20 sf_sampler 10001;
#X obj 10 40 sf_sampler 10050;
#X obj 10 60 sf_sampler 10051;
#X restore 8 39 pd sf_field;
#N canvas 438 535 736 515 gen_sf_samplers 0;
#X obj 90 21 inlet;
#X obj 105 65 r number_of_speakers;
#X obj 90 95 uzi;
#X obj 90 309 s pd-sf_field;
#X obj 90 122 f 10000;
#X msg 128 95 10000;
#X obj 142 123 + 50;
#X text 173 96 init sf_port;
#X text 175 122 port distance;
#X obj 90 153 t b f b f;
#X obj 90 225 f;
#X obj 121 225 + 20;
#X obj 90 255 pack f f;
#X msg 167 176 0;
#X obj 107 181 + 1;
#X obj 90 42 t b b b b;
#X msg 220 205 clear;
#X msg 90 279 obj 10 \$1 sf_sampler \$2;
#X connect 0 0 15 0;
#X connect 1 0 2 1;
#X connect 2 0 4 0;
#X connect 4 0 6 0;
#X connect 4 0 9 0;
#X connect 5 0 4 1;
#X connect 6 0 4 1;
#X connect 9 0 10 0;
#X connect 9 1 14 0;
#X connect 9 2 10 0;
#X connect 9 3 12 1;
#X connect 10 0 11 0;
#X connect 10 0 12 0;
#X connect 11 0 10 1;
#X connect 12 0 17 0;
#X connect 13 0 10 1;
#X connect 14 0 12 1;
#X connect 15 0 2 0;
#X connect 15 1 5 0;
#X connect 15 2 13 0;
#X connect 15 3 16 0;
#X connect 16 0 3 0;
#X connect 17 0 3 0;
#X restore 12 161 pd gen_sf_samplers;
#X obj 12 140 bng 15 250 50 0 empty empty empty 17 7 0 10 -262144 -1
-1;
#X obj 11 116 s number_of_speakers;
#X connect 1 0 0 0;
#X connect 2 0 0 1;
#X connect 3 0 7 0;
#X connect 6 0 5 0;
