#N canvas 347 332 807 440 10;
#X obj 95 103 netreceive;
#X msg 95 81 listen \$1;
#X obj 95 57 \$1;
#X obj 95 35 initbang;
#X obj 173 105 print;
#X connect 1 0 0 0;
#X connect 1 0 4 0;
#X connect 2 0 1 0;
#X connect 3 0 2 0;
