#N canvas 260 101 807 440 10;
#X obj 95 103 netreceive;
#X msg 95 81 listen \$1;
#X obj 95 57 \$1;
#X obj 95 35 initbang;
#X floatatom 152 125 5 0 0 0 - - -, f 5;
#X floatatom 94 169 5 0 0 0 - - -, f 5;
#X floatatom 139 171 5 0 0 0 - - -, f 5;
#X floatatom 172 78 5 0 0 0 - - -, f 5;
#X obj 185 362 print sample;
#X obj 172 52 bng 15 250 50 0 empty empty empty 17 7 0 10 -262144 -1
-1;
#N canvas 0 50 450 300 debug 0;
#X msg 89 194 10000;
#X obj 89 171 t b f;
#X obj 89 215 list append;
#X obj 89 238 outlet;
#X obj 89 146 inlet;
#X msg 155 167 set \$1;
#X obj 155 146 r \$0-port;
#X connect 0 0 2 0;
#X connect 1 0 0 0;
#X connect 1 1 2 1;
#X connect 2 0 3 0;
#X connect 4 0 1 0;
#X connect 5 0 0 0;
#X connect 6 0 5 0;
#X restore 94 220 pd debug;
#X obj 139 301 print distance;
#X obj 94 244 print play;
#X obj 515 273 readsf~;
#X obj 172 97 s \$0-port;
#N canvas 0 50 450 300 debug 0;
#X msg 89 194 10000;
#X obj 89 171 t b f;
#X obj 89 215 list append;
#X obj 89 238 outlet;
#X obj 89 146 inlet;
#X msg 155 167 set \$1;
#X obj 155 146 r \$0-port;
#X connect 0 0 2 0;
#X connect 1 0 0 0;
#X connect 1 1 2 1;
#X connect 2 0 3 0;
#X connect 4 0 1 0;
#X connect 5 0 0 0;
#X connect 6 0 5 0;
#X restore 139 273 pd debug;
#X msg 515 220 1;
#X msg 544 242 0;
#X symbolatom 266 339 10 0 0 0 - - -, f 10;
#X obj 185 176 l2s;
#N canvas 0 50 450 300 debug 0;
#X msg 89 194 10000;
#X obj 89 256 list append;
#X obj 89 279 outlet;
#X obj 89 146 inlet;
#X msg 155 167 set \$1;
#X obj 155 146 r \$0-port;
#X obj 89 171 t b a;
#X obj 150 228 l2s;
#X connect 0 0 1 0;
#X connect 1 0 2 0;
#X connect 3 0 6 0;
#X connect 4 0 0 0;
#X connect 5 0 4 0;
#X connect 6 0 0 0;
#X connect 6 1 7 0;
#X connect 7 0 1 1;
#X restore 185 340 pd debug;
#X obj 95 148 route play distance sample loop;
#X floatatom 232 174 5 0 0 0 - - -, f 5;
#X obj 554 313 s \$0-sample_end;
#X obj 515 75 bng 15 250 50 0 empty empty empty 17 7 0 10 -262144 -1
-1;
#X msg 542 180 open ../../data/samples/amb1.wav;
#X obj 515 115 t b b;
#X msg 553 156 set open ../../data/samples/\$1;
#X obj 266 360 s \$0-sf-sample;
#X obj 553 134 r \$0-sf-sample;
#X obj 515 26 r \$0-sf-play;
#X obj 515 49 sel 1;
#X obj 165 245 s \$0-sf-play;
#X obj 601 25 r \$0-sample_end;
#X obj 601 83 spigot;
#X obj 634 64 tgl 15 0 empty empty empty 17 7 0 10 -262144 -1 -1 0
1;
#X obj 634 45 r \$0-sf-loop;
#X obj 307 417 s \$0-sf-loop;
#X obj 227 300 s \$0-distance;
#X obj 417 302 r \$0-distance;
#X obj 501 382 *~;
#X obj 417 345 line~;
#X msg 417 323 \$1 20;
#X obj 500 411 throw~ signalL;
#N canvas 0 50 450 300 debug 0;
#X msg 89 194 10000;
#X obj 89 171 t b f;
#X obj 89 215 list append;
#X obj 89 238 outlet;
#X obj 89 146 inlet;
#X msg 155 167 set \$1;
#X obj 155 146 r \$0-port;
#X connect 0 0 2 0;
#X connect 1 0 0 0;
#X connect 1 1 2 1;
#X connect 2 0 3 0;
#X connect 4 0 1 0;
#X connect 5 0 0 0;
#X connect 6 0 5 0;
#X restore 232 394 pd debug;
#X obj 232 418 print loop;
#X connect 0 0 21 0;
#X connect 0 1 4 0;
#X connect 1 0 0 0;
#X connect 2 0 1 0;
#X connect 2 0 7 0;
#X connect 3 0 2 0;
#X connect 5 0 10 0;
#X connect 5 0 32 0;
#X connect 6 0 15 0;
#X connect 6 0 38 0;
#X connect 7 0 14 0;
#X connect 9 0 7 0;
#X connect 10 0 12 0;
#X connect 13 0 40 1;
#X connect 13 1 23 0;
#X connect 15 0 11 0;
#X connect 16 0 13 0;
#X connect 17 0 13 0;
#X connect 18 0 28 0;
#X connect 19 0 18 0;
#X connect 20 0 8 0;
#X connect 21 0 5 0;
#X connect 21 1 6 0;
#X connect 21 2 19 0;
#X connect 21 2 20 0;
#X connect 21 3 22 0;
#X connect 22 0 37 0;
#X connect 22 0 44 0;
#X connect 24 0 26 0;
#X connect 25 0 13 0;
#X connect 26 0 16 0;
#X connect 26 1 25 0;
#X connect 27 0 25 0;
#X connect 29 0 27 0;
#X connect 30 0 31 0;
#X connect 31 0 24 0;
#X connect 31 1 17 0;
#X connect 33 0 34 0;
#X connect 34 0 26 0;
#X connect 35 0 34 1;
#X connect 36 0 35 0;
#X connect 39 0 42 0;
#X connect 40 0 43 0;
#X connect 41 0 40 0;
#X connect 42 0 41 0;
#X connect 44 0 45 0;
