#N canvas 206 60 653 1092 10;
#X obj 173 142 tgl 15 0 \$0-foo \$0-is_active empty 17 7 0 10 -1 -262144
-262144 0 1;
#X obj 102 142 cnv 15 14 15 empty \$0-speaker_no 1 1 8 0 10 -3584 -262144
0;
#X obj 102 158 cnv 15 70 15 empty \$0-sample_name wood2.wav 1 8 0 10
-3584 -262144 0;
#X obj 173 179 cnv 15 14 15 empty \$0-net_conn empty 1 8 0 10 -258699
-262144 0;
#X obj 102 179 cnv 15 40 15 empty \$0-text_cnv_ip 100: 1 8 0 10 -128992
-262144 0;
#X obj 136 179 cnv 15 36 15 empty \$0-text_cnv_port 12000 1 8 0 10
-128992 -262144 0;
#X msg 82 416 disconnect;
#X msg 41 374 connect 192.168.1.\$1 \$2;
#X obj 68 301 r net_connect;
#X msg 41 228 set;
#X msg 41 327 add2 \$1;
#X obj 40 962 sel 1;
#X obj 41 207 r \$0-init;
#X obj 57 250 r \$0-ip;
#X obj 62 276 r \$0-port;
#X msg 41 351 100 12000;
#X obj 116 142 cnv 15 56 15 empty \$0-text_cnv_dist dist:747 1 8 0
10 -3584 -262144 0;
#N canvas 544 276 827 542 init 0;
#X obj 104 412 \$1;
#X obj 119 315 \$2;
#X obj 135 222 \$3;
#N canvas 374 165 450 300 send_no 0;
#X obj 149 71 inlet;
#X obj 149 93 t b f;
#X msg 149 160 label 1;
#X msg 176 136 set label \$1;
#X obj 176 116 makefilename %d;
#X obj 149 183 send \$0-speaker_no;
#X connect 0 0 1 0;
#X connect 1 0 2 0;
#X connect 1 1 4 0;
#X connect 2 0 5 0;
#X connect 3 0 2 0;
#X connect 4 0 3 0;
#X restore 131 458 pd send_no;
#N canvas 580 203 450 300 send_port 0;
#X obj 149 71 inlet;
#X obj 149 93 t b f;
#X obj 176 116 makefilename %d;
#X obj 149 183 send \$0-text_cnv_port;
#X msg 176 136 set label \$1;
#X msg 149 160 label 12000;
#X connect 0 0 1 0;
#X connect 1 0 5 0;
#X connect 1 1 2 0;
#X connect 2 0 4 0;
#X connect 4 0 5 0;
#X connect 5 0 3 0;
#X restore 146 360 pd send_port;
#N canvas 698 244 450 300 send_ip 0;
#X obj 149 71 inlet;
#X obj 149 93 t b f;
#X obj 176 116 makefilename %d;
#X obj 149 183 send \$0-text_cnv_ip;
#X msg 149 160 label 100:;
#X msg 176 135 set label \$1:;
#X floatatom 205 81 5 0 0 0 - - -, f 5;
#X connect 0 0 1 0;
#X connect 1 0 4 0;
#X connect 1 1 2 0;
#X connect 2 0 5 0;
#X connect 4 0 3 0;
#X connect 5 0 4 0;
#X connect 6 0 2 0;
#X restore 162 267 pd send_ip;
#X obj 104 68 initbang;
#X obj 135 243 t f f;
#X obj 135 289 s \$0-ip;
#X obj 119 339 t f f;
#X obj 119 381 s \$0-port;
#X obj 151 131 \$4;
#X obj 167 112 s \$0-init;
#X obj 235 216 sendcanvas;
#N canvas 928 711 450 300 \$0-preset 0;
#X restore 399 390 pd \$0-preset;
#X msg 266 381 \; pd-\$1-preset clear;
#X obj 266 362 \$0;
#X obj 266 338 bng 15 250 50 0 empty empty empty 17 7 0 10 -262144
-1 -1;
#X obj 159 68 bng 15 250 50 0 empty empty empty 17 7 0 10 -262144 -1
-1;
#X obj 151 195 s \$0-row;
#X obj 104 485 s \$0-id;
#X obj 104 435 t f f;
#X obj 104 90 t b b b b b;
#X msg 235 192 obj 250 10 namecanvas preset-\$1;
#X msg 452 192 obj 250 30 pd preset-1;
#X text 270 450 bude treba oddelit \$1...\$4 pro initbang a loadbang
;
#X text 269 463 aby se vickrat negeneroval objekt namecanvas;
#X text 270 436 loadbang bude treba kvuli re-inicializaci po nahrani?
;
#X obj 151 159 t f f;
#X text 86 43 \$1-id \$2-port \$3-ip \$4-row;
#N canvas 1021 535 385 374 pick_col 0;
#X obj 44 22 inlet;
#X msg 44 97 290;
#X msg 58 119 970;
#X msg 71 97 990;
#X msg 83 119 79;
#X msg 98 97 930;
#X msg 111 119 9;
#X msg 125 97 460;
#X msg 152 97 628;
#X msg 164 119 778;
#X obj 44 167 f;
#X obj 44 48 mod 10;
#X msg 139 119 690;
#N canvas 434 131 353 566 convert_color 0;
#X obj 144 115 div 10;
#X obj 224 115 mod 10;
#X obj 64 71 div 100;
#X obj 143 72 mod 100;
#X obj 144 93 t f f;
#X obj 64 247 i;
#X obj 144 247 i;
#X obj 224 247 i;
#X obj 64 225 + 0.5;
#X obj 144 225 + 0.5;
#X obj 224 225 + 0.5;
#X obj 64 137 sel 9;
#X obj 64 159 8;
#X obj 144 137 sel 9;
#X obj 144 159 8;
#X obj 224 137 sel 9;
#X obj 224 159 8;
#X obj 64 181 / 8;
#X obj 144 181 / 8;
#X obj 224 181 / 8;
#X obj 64 203 * 255;
#X obj 144 203 * 255;
#X obj 224 203 * 255;
#X obj 64 50 t f f;
#X obj 64 26 inlet;
#X obj 224 290 t b f;
#X obj 144 341 +, f 2;
#X obj 144 364 t b f;
#X obj 144 395 +;
#X obj 64 269 * -65536;
#X obj 144 268 * -256;
#X obj 224 270 * -1;
#X obj 144 417 - 1;
#X obj 144 440 pack 0 0 0;
#X obj 144 462 outlet;
#X connect 0 0 13 0;
#X connect 1 0 15 0;
#X connect 2 0 11 0;
#X connect 3 0 4 0;
#X connect 4 0 0 0;
#X connect 4 1 1 0;
#X connect 5 0 29 0;
#X connect 6 0 30 0;
#X connect 7 0 31 0;
#X connect 8 0 5 0;
#X connect 9 0 6 0;
#X connect 10 0 7 0;
#X connect 11 0 12 0;
#X connect 11 1 17 0;
#X connect 12 0 17 0;
#X connect 13 0 14 0;
#X connect 13 1 18 0;
#X connect 14 0 18 0;
#X connect 15 0 16 0;
#X connect 15 1 19 0;
#X connect 16 0 19 0;
#X connect 17 0 20 0;
#X connect 18 0 21 0;
#X connect 19 0 22 0;
#X connect 20 0 8 0;
#X connect 21 0 9 0;
#X connect 22 0 10 0;
#X connect 23 0 2 0;
#X connect 23 1 3 0;
#X connect 24 0 23 0;
#X connect 25 0 26 0;
#X connect 25 1 26 1;
#X connect 26 0 27 0;
#X connect 27 0 28 0;
#X connect 27 1 28 1;
#X connect 28 0 32 0;
#X connect 29 0 28 0;
#X connect 30 0 26 0;
#X connect 31 0 25 0;
#X connect 32 0 33 0;
#X connect 33 0 34 0;
#X restore 44 198 pd convert_color;
#X obj 44 253 s \$0-speaker_no;
#X obj 145 253 s \$0-text_cnv_dist;
#X msg 44 223 color \$1 \$2 \$3;
#X obj 44 71 sel 1 2 3 4 5 6 7 8 9 10;
#X obj 262 253 s \$0-speaker_col;
#X connect 0 0 11 0;
#X connect 1 0 10 0;
#X connect 2 0 10 0;
#X connect 3 0 10 0;
#X connect 4 0 10 0;
#X connect 5 0 10 0;
#X connect 6 0 10 0;
#X connect 7 0 10 0;
#X connect 8 0 10 0;
#X connect 9 0 10 0;
#X connect 10 0 13 0;
#X connect 11 0 17 0;
#X connect 12 0 10 0;
#X connect 13 0 16 0;
#X connect 16 0 14 0;
#X connect 16 0 15 0;
#X connect 16 0 18 0;
#X connect 17 0 1 0;
#X connect 17 1 2 0;
#X connect 17 2 3 0;
#X connect 17 3 4 0;
#X connect 17 4 5 0;
#X connect 17 5 6 0;
#X connect 17 6 7 0;
#X connect 17 7 12 0;
#X connect 17 8 8 0;
#X connect 17 9 9 0;
#X restore 393 86 pd pick_col;
#X obj 393 65 r \$0-row;
#X floatatom 190 226 5 0 0 0 - - -, f 5;
#X obj 250 10 namecanvas preset-0;
#X obj 250 10 namecanvas preset-0;
#X obj 250 10 namecanvas preset-0;
#X obj 250 10 namecanvas preset-0;
#X obj 250 10 namecanvas preset-0;
#X obj 250 10 namecanvas preset-0;
#X obj 250 10 namecanvas preset-0;
#X obj 250 10 namecanvas preset-0;
#X obj 250 10 namecanvas preset-0;
#X obj 250 10 namecanvas preset-0;
#X connect 0 0 21 0;
#X connect 1 0 9 0;
#X connect 2 0 7 0;
#X connect 6 0 22 0;
#X connect 7 0 8 0;
#X connect 7 1 5 0;
#X connect 9 0 10 0;
#X connect 9 1 4 0;
#X connect 11 0 28 0;
#X connect 16 0 15 0;
#X connect 17 0 16 0;
#X connect 18 0 22 0;
#X connect 21 0 20 0;
#X connect 21 1 3 0;
#X connect 22 0 0 0;
#X connect 22 1 1 0;
#X connect 22 2 2 0;
#X connect 22 3 11 0;
#X connect 22 4 12 0;
#X connect 23 0 13 0;
#X connect 24 0 13 0;
#X connect 28 0 19 0;
#X connect 28 0 32 0;
#X connect 28 1 23 0;
#X connect 31 0 30 0;
#X restore 26 17 pd init;
#X obj 40 940 netsend;
#X obj 82 396 r net_disconnect;
#X obj 110 107 cnv 15 14 15 empty \$0-play_state empty 2 7 0 10 -262144
-1 0;
#X msg 40 1009 color \$1;
#X msg 67 983 133;
#X obj 40 1033 send \$0-play_state;
#X obj 106 104 hsl 80 10 0 1 0 0 \$0-adc1L \$0-foo1 empty -2 -8 0 10
-261234 -1 -1 0 1;
#X obj 195 104 hsl 80 10 0 1 0 0 \$0-adc1R \$0-foo1 empty -2 -8 0 10
-261234 -1 -1 0 1;
#X floatatom 113 837 5 0 0 0 - - -, f 5;
#X floatatom 204 834 5 0 0 0 - - -, f 5;
#X msg 40 983 60;
#X msg 113 861 send adc1L \$1;
#X msg 204 861 send adc1R \$1;
#X obj 113 812 r \$0-adc1L;
#X obj 204 812 r \$0-adc1R;
#X floatatom 307 838 5 0 0 0 - - -, f 5;
#X floatatom 398 836 5 0 0 0 - - -, f 5;
#X obj 307 813 r \$0-adc2L;
#X obj 398 814 r \$0-adc2R;
#X msg 307 859 send adc2L \$1;
#X msg 398 859 send adc2R \$1;
#X obj 106 120 hsl 80 10 0 1 0 0 \$0-adc2L \$0-foo1 empty -2 -8 0 10
-261234 -1 -1 0 1;
#X obj 195 120 hsl 80 10 0 1 0 0 \$0-adc2R \$0-foo1 empty -2 -8 0 10
-261234 -1 -1 0 1;
#X obj 198 476 r \$0-id;
#X floatatom 198 560 5 0 0 0 - - -, f 5;
#X obj 198 639 iem_r;
#X msg 198 607 set adcvol_\$1;
#X obj 297 640 iem_r;
#X obj 297 581 + 1;
#X msg 297 607 set adcvol_\$1;
#X obj 198 497 - 1;
#X obj 198 519 * 2;
#X obj 198 539 + 1;
#X floatatom 198 708 5 0 0 0 - - -, f 5;
#X floatatom 297 708 5 0 0 0 - - -, f 5;
#X obj 198 731 s \$0-adc1L;
#X obj 297 729 s \$0-adc1R;
#X obj 198 680 spigot;
#X obj 297 680 spigot;
#X obj 352 639 r track_adc;
#X obj 103 22 r \$0-adc1L;
#X obj 192 22 r \$0-adc1R;
#X obj 112 63 r \$0-adc2L;
#X obj 198 61 r \$0-adc2R;
#X msg 103 42 set \$1;
#X msg 192 42 set \$1;
#X msg 112 81 set \$1;
#X msg 198 80 set \$1;
#X obj 429 476 r \$0-id;
#X floatatom 429 560 5 0 0 0 - - -, f 5;
#X obj 429 639 iem_r;
#X msg 429 607 set adcvol_\$1;
#X obj 528 639 iem_r;
#X obj 528 581 + 1;
#X msg 528 607 set adcvol_\$1;
#X obj 429 497 - 1;
#X obj 429 519 * 2;
#X floatatom 429 708 5 0 0 0 - - -, f 5;
#X floatatom 528 708 5 0 0 0 - - -, f 5;
#X obj 429 730 s \$0-adc2L;
#X obj 528 730 s \$0-adc2R;
#X obj 429 680 spigot;
#X obj 528 680 spigot;
#X obj 366 159 r \$0-id;
#X floatatom 366 243 5 0 0 0 - - -, f 5;
#X obj 366 322 iem_r;
#X obj 465 323 iem_r;
#X obj 465 264 + 1;
#X obj 366 180 - 1;
#X obj 366 202 * 2;
#X obj 366 222 + 1;
#X msg 366 290 set adcmidi_\$1;
#X msg 465 290 set adcmidi_\$1;
#X obj 429 539 + 21;
#X connect 6 0 18 0;
#X connect 7 0 18 0;
#X connect 8 0 15 0;
#X connect 9 0 15 0;
#X connect 10 0 15 0;
#X connect 11 0 28 0;
#X connect 11 1 22 0;
#X connect 12 0 9 0;
#X connect 13 0 10 0;
#X connect 14 0 10 0;
#X connect 15 0 7 0;
#X connect 18 0 11 0;
#X connect 19 0 6 0;
#X connect 21 0 23 0;
#X connect 22 0 21 0;
#X connect 26 0 29 0;
#X connect 27 0 30 0;
#X connect 28 0 21 0;
#X connect 29 0 18 0;
#X connect 30 0 18 0;
#X connect 31 0 26 0;
#X connect 32 0 27 0;
#X connect 33 0 37 0;
#X connect 34 0 38 0;
#X connect 35 0 33 0;
#X connect 36 0 34 0;
#X connect 37 0 18 0;
#X connect 38 0 18 0;
#X connect 41 0 48 0;
#X connect 42 0 44 0;
#X connect 42 0 46 0;
#X connect 43 0 55 0;
#X connect 44 0 43 0;
#X connect 45 0 56 0;
#X connect 46 0 47 0;
#X connect 47 0 45 0;
#X connect 48 0 49 0;
#X connect 49 0 50 0;
#X connect 50 0 42 0;
#X connect 51 0 53 0;
#X connect 52 0 54 0;
#X connect 55 0 51 0;
#X connect 56 0 52 0;
#X connect 57 0 55 1;
#X connect 57 0 56 1;
#X connect 57 0 79 1;
#X connect 57 0 80 1;
#X connect 58 0 62 0;
#X connect 59 0 63 0;
#X connect 60 0 64 0;
#X connect 61 0 65 0;
#X connect 62 0 24 0;
#X connect 63 0 25 0;
#X connect 64 0 39 0;
#X connect 65 0 40 0;
#X connect 66 0 73 0;
#X connect 67 0 69 0;
#X connect 67 0 71 0;
#X connect 68 0 79 0;
#X connect 69 0 68 0;
#X connect 70 0 80 0;
#X connect 71 0 72 0;
#X connect 72 0 70 0;
#X connect 73 0 74 0;
#X connect 74 0 91 0;
#X connect 75 0 77 0;
#X connect 76 0 78 0;
#X connect 79 0 75 0;
#X connect 80 0 76 0;
#X connect 81 0 86 0;
#X connect 82 0 89 0;
#X connect 82 0 85 0;
#X connect 83 0 24 0;
#X connect 83 0 25 0;
#X connect 84 0 39 0;
#X connect 84 0 40 0;
#X connect 85 0 90 0;
#X connect 86 0 87 0;
#X connect 87 0 88 0;
#X connect 88 0 82 0;
#X connect 89 0 83 0;
#X connect 90 0 84 0;
#X connect 91 0 67 0;
#X coords 0 -1 1 1 180 35 2 100 100;
