#N canvas 598 144 975 818 10;
#X obj 101 240 once;
#X obj 101 260 bng 15 250 50 0 empty empty empty 17 7 0 10 -262144
-1 -1;
#X obj 139 240 delay 200;
#X obj 103 380 delay 100;
#X obj 101 55 inlet;
#X obj 101 74 bang;
#X msg 120 405 0 0 82;
#X obj 101 287 t b b b;
#X obj 140 310 tgl 15 0 empty empty empty 17 7 0 10 -262144 -1 -1 0
1;
#X obj 205 337 sel 1;
#X obj 140 356 outlet;
#X obj 391 586 s \$0-bttn-rec;
#X obj 374 731 s \$0-bttn;
#X obj 101 8 namecanvas \$0-bttn;
#X msg 374 709 donecanvasdialog 1 -1 2 0 -1 1 1 \$1 \$2 100 100 \,
dirty 0;
#X obj 374 607 unpack f f;
#X obj 374 687 pack f f;
#X obj 374 387 pack f f;
#X obj 326 27 bng 15 250 50 0 empty empty empty 17 7 0 10 -262144 -1
-1;
#X obj 479 280 any2bytes;
#X obj 479 301 list length;
#X obj 479 322 - 1;
#X obj 479 346 t b f;
#X obj 479 390 / 2;
#X obj 479 414 -;
#X msg 519 228 set \$1;
#X msg 480 257 ;
#X obj 479 368 f;
#X obj 374 117 t f f;
#X obj 417 117 t f f;
#X obj 479 432 pack f f;
#X msg 479 453 label_pos \$1 \$2;
#X msg 507 142 set label \$1;
#X obj 480 114 t b s;
#X obj 480 88 symbol \$3;
#X obj 618 88 symbol \$4;
#X obj 480 196 t b a a;
#X msg 618 108 set label \$1;
#X obj 101 485 s \$0-bttn-rec;
#X obj 479 60 r \$0-label1;
#X obj 205 383 s \$0-label2;
#X obj 232 361 s \$0-label1;
#X obj 594 60 r \$0-label2;
#X msg 391 564 vis_size \$1 \$2;
#X obj 104 101 hsl 2 8 0 127 0 0 empty \$0-bttn-slid empty -2 -8 0
10 -262144 -1 -1 0 0;
#X msg 420 520 size \$1 \$2, f 12;
#X obj 519 649 s \$0-bttn-slid;
#X obj 374 410 t a a a a;
#X obj 519 569 unpack f f;
#X obj 519 609 pack f f;
#X msg 519 629 size \$1 \$2;
#X obj 101 101 cnv 5 1 1 \$0-bttn-send \$0-bttn-rec empty 0 0 0 4 -262144
-262144 0;
#X obj 430 636 + 2;
#X obj 374 634 + 2;
#X obj 519 589 - 5;
#X msg 725 168 label_font 0 \$1;
#X obj 725 81 \$5 10;
#X obj 358 150 b;
#X text 442 368 width;
#X obj 836 79 \$6;
#X obj 358 33 t b b b b b b b;
#X floatatom 859 137 5 0 0 0 - - -, f 5;
#X obj 836 189 s \$0-col;
#X obj 13 353 r \$0-col;
#X text 546 280 // or jasch_lib / strlen;
#X obj 373 90 \$1;
#X obj 417 88 \$2;
#X floatatom 249 91 5 0 0 0 - - -, f 5;
#X obj 271 69 t b f;
#X floatatom 279 49 5 0 0 0 - - -, f 5;
#X msg 541 514 vis_size \$1 \$1;
#X floatatom 546 487 5 0 0 0 - - -, f 5;
#X msg 632 539 size 5 5, f 12;
#X msg 101 432 0 0 0;
#X msg 13 401 set \$1 \$1 0;
#X msg 175 436 82 82 0;
#X msg 837 166 color \$1 \$1 0;
#X msg 101 463 color \$1 \$1 0;
#X obj 524 411 / 1.8;
#X obj 506 391 * 2.4;
#X text 546 390 width aspect;
#X text 565 411 height aspect;
#X msg 594 166 label ;
#X msg 480 166 label ;
#X text 421 -2 arguments \$1 - x size - \$2 y size - \$3 - 1st title
-\$4 - 2nd title - \$5 font size - \$6 color;
#X obj 358 -27 initbang;
#X obj 374 663 pipe 20;
#X text 493 30 1 gray // 12 black // 13 red // 16 grn // 18 blue;
#X text 307 658 otherwise;
#X text 306 669 pd crashes;
#X connect 0 0 1 0;
#X connect 1 0 2 0;
#X connect 1 0 7 0;
#X connect 2 0 0 1;
#X connect 3 0 73 0;
#X connect 4 0 5 0;
#X connect 5 0 44 0;
#X connect 6 0 77 0;
#X connect 7 0 3 0;
#X connect 7 1 6 0;
#X connect 7 2 8 0;
#X connect 8 0 10 0;
#X connect 8 0 9 0;
#X connect 9 0 40 0;
#X connect 9 1 41 0;
#X connect 14 0 12 0;
#X connect 15 0 53 0;
#X connect 15 1 52 0;
#X connect 16 0 14 0;
#X connect 17 0 47 0;
#X connect 18 0 60 0;
#X connect 19 0 20 0;
#X connect 20 0 21 0;
#X connect 21 0 22 0;
#X connect 22 0 27 0;
#X connect 22 1 79 0;
#X connect 23 0 24 0;
#X connect 24 0 30 0;
#X connect 25 0 26 0;
#X connect 26 0 19 0;
#X connect 27 0 23 0;
#X connect 28 0 17 0;
#X connect 28 1 27 1;
#X connect 29 0 17 1;
#X connect 29 1 78 0;
#X connect 30 0 31 0;
#X connect 31 0 11 0;
#X connect 32 0 83 0;
#X connect 33 0 83 0;
#X connect 33 1 32 0;
#X connect 34 0 33 0;
#X connect 35 0 37 0;
#X connect 36 0 26 0;
#X connect 36 1 11 0;
#X connect 36 2 25 0;
#X connect 37 0 82 0;
#X connect 39 0 83 0;
#X connect 42 0 82 0;
#X connect 43 0 11 0;
#X connect 44 0 0 0;
#X connect 45 0 11 0;
#X connect 47 0 15 0;
#X connect 47 1 43 0;
#X connect 47 3 48 0;
#X connect 48 0 54 0;
#X connect 48 1 49 1;
#X connect 49 0 50 0;
#X connect 50 0 46 0;
#X connect 52 0 16 1;
#X connect 53 0 86 0;
#X connect 54 0 49 0;
#X connect 55 0 11 0;
#X connect 56 0 55 0;
#X connect 57 0 83 0;
#X connect 57 0 73 0;
#X connect 59 0 76 0;
#X connect 60 0 57 0;
#X connect 60 1 65 0;
#X connect 60 2 66 0;
#X connect 60 3 34 0;
#X connect 60 4 35 0;
#X connect 60 5 56 0;
#X connect 60 6 59 0;
#X connect 61 0 76 0;
#X connect 63 0 74 0;
#X connect 65 0 28 0;
#X connect 66 0 29 0;
#X connect 67 0 65 0;
#X connect 68 0 67 0;
#X connect 68 1 66 0;
#X connect 69 0 68 0;
#X connect 70 0 11 0;
#X connect 71 0 70 0;
#X connect 72 0 11 0;
#X connect 73 0 77 0;
#X connect 74 0 73 0;
#X connect 76 0 62 0;
#X connect 76 0 11 0;
#X connect 77 0 38 0;
#X connect 78 0 30 1;
#X connect 79 0 24 1;
#X connect 82 0 36 0;
#X connect 83 0 36 0;
#X connect 85 0 60 0;
#X connect 86 0 16 0;
#X coords 0 -1 1 1 2 2 2 100 100;
