#N canvas 604 168 1075 829 10;
#X floatatom 6 -75 3 0 0 0 - - -, f 3;
#X obj 6 -100 ctlin 1 3;
#X obj 6 -13 s osc_fr1;
#X floatatom 73 -75 3 0 0 0 - - -, f 3;
#X obj 74 -37 * 50, f 6;
#X floatatom 140 -76 3 0 0 0 - - -, f 3;
#X obj 141 -38 * 50, f 6;
#X floatatom 207 -76 3 0 0 0 - - -, f 3;
#X obj 208 -38 * 50, f 6;
#X floatatom 272 -77 3 0 0 0 - - -, f 3;
#X obj 273 -39 * 50, f 6;
#X floatatom 339 -77 3 0 0 0 - - -, f 3;
#X obj 340 -39 * 50, f 6;
#X floatatom 406 -78 3 0 0 0 - - -, f 3;
#X obj 407 -40 * 50, f 6;
#X floatatom 473 -78 3 0 0 0 - - -, f 3;
#X obj 474 -40 * 50, f 6;
#X floatatom 537 -75 3 0 0 0 - - -, f 3;
#X obj 538 -37 * 50, f 6;
#X floatatom 604 -75 3 0 0 0 - - -, f 3;
#X obj 605 -37 * 50, f 6;
#X obj 73 -100 ctlin 2 3;
#X obj 140 -101 ctlin 3 3;
#X obj 207 -101 ctlin 4 3;
#X obj 272 -102 ctlin 5 3;
#X obj 339 -102 ctlin 6 3;
#X obj 406 -103 ctlin 7 3;
#X obj 474 -103 ctlin 8 3;
#X obj 537 -100 ctlin 9 3;
#X obj 604 -100 ctlin 10 3;
#X obj 73 -14 s osc_fr2;
#X obj 140 -14 s osc_fr3;
#X obj 207 -14 s osc_fr4;
#X obj 272 -15 s osc_fr5;
#X obj 339 -15 s osc_fr6;
#X obj 406 -16 s osc_fr7;
#X obj 473 -16 s osc_fr8;
#X obj 537 -13 s osc_fr9;
#X obj 604 -13 s osc_fr10;
#X floatatom 6 40 3 0 0 0 - - -, f 3;
#X obj 7 78 * 50, f 6;
#X floatatom 73 40 3 0 0 0 - - -, f 3;
#X obj 74 78 * 50, f 6;
#X floatatom 140 39 3 0 0 0 - - -, f 3;
#X obj 141 77 * 50, f 6;
#X floatatom 207 39 3 0 0 0 - - -, f 3;
#X obj 208 77 * 50, f 6;
#X floatatom 272 38 3 0 0 0 - - -, f 3;
#X obj 273 76 * 50, f 6;
#X floatatom 339 38 3 0 0 0 - - -, f 3;
#X obj 340 76 * 50, f 6;
#X floatatom 406 37 3 0 0 0 - - -, f 3;
#X obj 407 75 * 50, f 6;
#X floatatom 473 37 3 0 0 0 - - -, f 3;
#X obj 474 75 * 50, f 6;
#X floatatom 537 40 3 0 0 0 - - -, f 3;
#X obj 538 78 * 50, f 6;
#X floatatom 604 40 3 0 0 0 - - -, f 3;
#X obj 605 78 * 50, f 6;
#X obj 6 15 ctlin 13 3;
#X obj 6 102 s osc_fr11;
#X obj 73 15 ctlin 14 3;
#X obj 140 14 ctlin 15 3;
#X obj 207 14 ctlin 16 3;
#X obj 272 13 ctlin 17 3;
#X obj 339 13 ctlin 18 3;
#X obj 406 12 ctlin 19 3;
#X obj 474 12 ctlin 20 3;
#X obj 537 15 ctlin 21 3;
#X obj 604 15 ctlin 22 3;
#X obj 73 101 s osc_fr12;
#X obj 140 101 s osc_fr13;
#X obj 207 101 s osc_fr14;
#X obj 272 100 s osc_fr15;
#X obj 339 100 s osc_fr16;
#X obj 406 99 s osc_fr17;
#X obj 473 99 s osc_fr18;
#X obj 537 102 s osc_fr19;
#X obj 604 102 s osc_fr20;
#X floatatom 5 167 3 0 0 0 - - -, f 3;
#X obj 5 142 ctlin 25 3;
#X obj 5 229 s osc_am1;
#X obj 6 205 / 15, f 6;
#X floatatom 78 167 3 0 0 0 - - -, f 3;
#X obj 79 205 / 15, f 6;
#X floatatom 151 167 3 0 0 0 - - -, f 3;
#X obj 152 205 / 15, f 6;
#X floatatom 224 167 3 0 0 0 - - -, f 3;
#X obj 225 205 / 15, f 6;
#X floatatom 299 167 3 0 0 0 - - -, f 3;
#X obj 300 205 / 15, f 6;
#X floatatom 372 167 3 0 0 0 - - -, f 3;
#X obj 373 205 / 15, f 6;
#X floatatom 445 167 3 0 0 0 - - -, f 3;
#X obj 446 205 / 15, f 6;
#X floatatom 518 167 3 0 0 0 - - -, f 3;
#X obj 519 205 / 15, f 6;
#X floatatom 593 165 3 0 0 0 - - -, f 3;
#X obj 594 203 / 15, f 6;
#X floatatom 666 165 3 0 0 0 - - -, f 3;
#X obj 667 203 / 15, f 6;
#X obj 78 142 ctlin 26 3;
#X obj 151 142 ctlin 27 3;
#X obj 224 142 ctlin 28 3;
#X obj 299 142 ctlin 29 3;
#X obj 372 142 ctlin 30 3;
#X obj 445 142 ctlin 31 3;
#X obj 517 142 ctlin 32 3;
#X obj 593 140 ctlin 33 3;
#X obj 666 140 ctlin 34 3;
#X obj 78 229 s osc_am2;
#X obj 151 229 s osc_am3;
#X obj 224 229 s osc_am4;
#X obj 299 229 s osc_am5;
#X obj 372 229 s osc_am6;
#X obj 445 229 s osc_am7;
#X obj 519 229 s osc_am8;
#X obj 594 227 s osc_am9;
#X obj 666 227 s osc_am10;
#X floatatom 3 300 3 0 0 0 - - -, f 3;
#X obj 4 338 / 15, f 6;
#X floatatom 76 300 3 0 0 0 - - -, f 3;
#X obj 77 338 / 15, f 6;
#X floatatom 149 300 3 0 0 0 - - -, f 3;
#X obj 150 338 / 15, f 6;
#X floatatom 222 300 3 0 0 0 - - -, f 3;
#X obj 223 338 / 15, f 6;
#X floatatom 297 300 3 0 0 0 - - -, f 3;
#X obj 298 338 / 15, f 6;
#X floatatom 370 300 3 0 0 0 - - -, f 3;
#X obj 371 338 / 15, f 6;
#X floatatom 443 300 3 0 0 0 - - -, f 3;
#X obj 444 338 / 15, f 6;
#X floatatom 516 300 3 0 0 0 - - -, f 3;
#X obj 517 338 / 15, f 6;
#X floatatom 591 298 3 0 0 0 - - -, f 3;
#X obj 592 336 / 15, f 6;
#X floatatom 664 298 3 0 0 0 - - -, f 3;
#X obj 665 336 / 15, f 6;
#X obj 3 275 ctlin 37 3;
#X obj 76 275 ctlin 38 3;
#X obj 149 274 ctlin 39 3;
#X obj 222 275 ctlin 40 3;
#X obj 297 275 ctlin 41 3;
#X obj 370 275 ctlin 42 3;
#X obj 442 275 ctlin 43 3;
#X obj 515 276 ctlin 44 3;
#X obj 591 273 ctlin 45 3;
#X obj 664 273 ctlin 46 3;
#X obj 3 362 s osc_am11;
#X obj 76 362 s osc_am12;
#X obj 149 362 s osc_am13;
#X obj 222 362 s osc_am14;
#X obj 297 362 s osc_am15;
#X obj 370 362 s osc_am16;
#X obj 443 362 s osc_am17;
#X obj 517 362 s osc_am18;
#X obj 592 360 s osc_am19;
#X obj 664 360 s osc_am20;
#X floatatom 13 431 3 0 0 0 - - -, f 3;
#X obj 13 406 ctlin 49 3;
#X obj 12 488 s osc_vol1;
#X obj 14 459 / 1270;
#X obj 7 -37 * 50, f 6;
#X floatatom 92 431 3 0 0 0 - - -, f 3;
#X obj 93 459 / 1270;
#X floatatom 167 432 3 0 0 0 - - -, f 3;
#X obj 168 460 / 1270;
#X floatatom 246 432 3 0 0 0 - - -, f 3;
#X obj 247 460 / 1270;
#X floatatom 321 430 3 0 0 0 - - -, f 3;
#X obj 322 458 / 1270;
#X floatatom 400 430 3 0 0 0 - - -, f 3;
#X obj 401 458 / 1270;
#X floatatom 475 431 3 0 0 0 - - -, f 3;
#X obj 476 459 / 1270;
#X floatatom 554 431 3 0 0 0 - - -, f 3;
#X obj 555 459 / 1270;
#X floatatom 640 432 3 0 0 0 - - -, f 3;
#X obj 641 460 / 1270;
#X floatatom 719 432 3 0 0 0 - - -, f 3;
#X obj 720 460 / 1270;
#X obj 92 406 ctlin 50 3;
#X obj 167 407 ctlin 51 3;
#X obj 246 407 ctlin 52 3;
#X obj 321 405 ctlin 53 3;
#X obj 400 405 ctlin 54 3;
#X obj 475 406 ctlin 55 3;
#X obj 554 406 ctlin 56 3;
#X obj 640 407 ctlin 57 3;
#X obj 719 407 ctlin 58 3;
#X obj 91 488 s osc_vol2;
#X obj 166 488 s osc_vol3;
#X obj 245 489 s osc_vol4;
#X obj 320 487 s osc_vol5;
#X obj 399 487 s osc_vol6;
#X obj 474 488 s osc_vol7;
#X obj 553 488 s osc_vol8;
#X obj 639 489 s osc_vol9;
#X obj 718 489 s osc_vol10;
#X floatatom 6 550 3 0 0 0 - - -, f 3;
#X obj 7 578 / 1270;
#X floatatom 85 550 3 0 0 0 - - -, f 3;
#X obj 86 578 / 1270;
#X floatatom 160 551 3 0 0 0 - - -, f 3;
#X obj 161 579 / 1270;
#X floatatom 239 551 3 0 0 0 - - -, f 3;
#X obj 240 579 / 1270;
#X floatatom 314 549 3 0 0 0 - - -, f 3;
#X obj 315 577 / 1270;
#X floatatom 393 549 3 0 0 0 - - -, f 3;
#X obj 394 577 / 1270;
#X floatatom 468 550 3 0 0 0 - - -, f 3;
#X obj 469 578 / 1270;
#X floatatom 547 550 3 0 0 0 - - -, f 3;
#X obj 548 578 / 1270;
#X floatatom 633 551 3 0 0 0 - - -, f 3;
#X obj 634 579 / 1270;
#X floatatom 712 551 3 0 0 0 - - -, f 3;
#X obj 713 579 / 1270;
#X obj 6 525 ctlin 61 3;
#X obj 85 525 ctlin 62 3;
#X obj 159 526 ctlin 63 3;
#X obj 239 526 ctlin 64 3;
#X obj 314 524 ctlin 65 3;
#X obj 393 524 ctlin 66 3;
#X obj 468 525 ctlin 67 3;
#X obj 547 525 ctlin 68 3;
#X obj 633 526 ctlin 69 3;
#X obj 712 526 ctlin 70 3;
#X obj 5 607 s osc_vol11;
#X obj 84 607 s osc_vol12;
#X obj 159 607 s osc_vol13;
#X obj 238 608 s osc_vol14;
#X obj 313 606 s osc_vol15;
#X obj 392 606 s osc_vol16;
#X obj 467 607 s osc_vol17;
#X obj 546 607 s osc_vol18;
#X obj 632 608 s osc_vol19;
#X obj 711 608 s osc_vol20;
#X connect 0 0 163 0;
#X connect 1 0 0 0;
#X connect 3 0 4 0;
#X connect 4 0 30 0;
#X connect 5 0 6 0;
#X connect 6 0 31 0;
#X connect 7 0 8 0;
#X connect 8 0 32 0;
#X connect 9 0 10 0;
#X connect 10 0 33 0;
#X connect 11 0 12 0;
#X connect 12 0 34 0;
#X connect 13 0 14 0;
#X connect 14 0 35 0;
#X connect 15 0 16 0;
#X connect 16 0 36 0;
#X connect 17 0 18 0;
#X connect 18 0 37 0;
#X connect 19 0 20 0;
#X connect 20 0 38 0;
#X connect 21 0 3 0;
#X connect 22 0 5 0;
#X connect 23 0 7 0;
#X connect 24 0 9 0;
#X connect 25 0 11 0;
#X connect 26 0 13 0;
#X connect 27 0 15 0;
#X connect 28 0 17 0;
#X connect 29 0 19 0;
#X connect 39 0 40 0;
#X connect 40 0 60 0;
#X connect 41 0 42 0;
#X connect 42 0 70 0;
#X connect 43 0 44 0;
#X connect 44 0 71 0;
#X connect 45 0 46 0;
#X connect 46 0 72 0;
#X connect 47 0 48 0;
#X connect 48 0 73 0;
#X connect 49 0 50 0;
#X connect 50 0 74 0;
#X connect 51 0 52 0;
#X connect 52 0 75 0;
#X connect 53 0 54 0;
#X connect 54 0 76 0;
#X connect 55 0 56 0;
#X connect 56 0 77 0;
#X connect 57 0 58 0;
#X connect 58 0 78 0;
#X connect 59 0 39 0;
#X connect 61 0 41 0;
#X connect 62 0 43 0;
#X connect 63 0 45 0;
#X connect 64 0 47 0;
#X connect 65 0 49 0;
#X connect 66 0 51 0;
#X connect 67 0 53 0;
#X connect 68 0 55 0;
#X connect 69 0 57 0;
#X connect 79 0 82 0;
#X connect 80 0 79 0;
#X connect 82 0 81 0;
#X connect 83 0 84 0;
#X connect 84 0 110 0;
#X connect 85 0 86 0;
#X connect 86 0 111 0;
#X connect 87 0 88 0;
#X connect 88 0 112 0;
#X connect 89 0 90 0;
#X connect 90 0 113 0;
#X connect 91 0 92 0;
#X connect 92 0 114 0;
#X connect 93 0 94 0;
#X connect 94 0 115 0;
#X connect 95 0 96 0;
#X connect 96 0 116 0;
#X connect 97 0 98 0;
#X connect 98 0 117 0;
#X connect 99 0 100 0;
#X connect 100 0 118 0;
#X connect 101 0 83 0;
#X connect 102 0 85 0;
#X connect 103 0 87 0;
#X connect 104 0 89 0;
#X connect 105 0 91 0;
#X connect 106 0 93 0;
#X connect 107 0 95 0;
#X connect 108 0 97 0;
#X connect 109 0 99 0;
#X connect 119 0 120 0;
#X connect 120 0 149 0;
#X connect 121 0 122 0;
#X connect 122 0 150 0;
#X connect 123 0 124 0;
#X connect 124 0 151 0;
#X connect 125 0 126 0;
#X connect 126 0 152 0;
#X connect 127 0 128 0;
#X connect 128 0 153 0;
#X connect 129 0 130 0;
#X connect 130 0 154 0;
#X connect 131 0 132 0;
#X connect 132 0 155 0;
#X connect 133 0 134 0;
#X connect 134 0 156 0;
#X connect 135 0 136 0;
#X connect 136 0 157 0;
#X connect 137 0 138 0;
#X connect 138 0 158 0;
#X connect 139 0 119 0;
#X connect 140 0 121 0;
#X connect 141 0 123 0;
#X connect 142 0 125 0;
#X connect 143 0 127 0;
#X connect 144 0 129 0;
#X connect 145 0 131 0;
#X connect 146 0 133 0;
#X connect 147 0 135 0;
#X connect 148 0 137 0;
#X connect 159 0 162 0;
#X connect 160 0 159 0;
#X connect 162 0 161 0;
#X connect 163 0 2 0;
#X connect 164 0 165 0;
#X connect 165 0 191 0;
#X connect 166 0 167 0;
#X connect 167 0 192 0;
#X connect 168 0 169 0;
#X connect 169 0 193 0;
#X connect 170 0 171 0;
#X connect 171 0 194 0;
#X connect 172 0 173 0;
#X connect 173 0 195 0;
#X connect 174 0 175 0;
#X connect 175 0 196 0;
#X connect 176 0 177 0;
#X connect 177 0 197 0;
#X connect 178 0 179 0;
#X connect 179 0 198 0;
#X connect 180 0 181 0;
#X connect 181 0 199 0;
#X connect 182 0 164 0;
#X connect 183 0 166 0;
#X connect 184 0 168 0;
#X connect 185 0 170 0;
#X connect 186 0 172 0;
#X connect 187 0 174 0;
#X connect 188 0 176 0;
#X connect 189 0 178 0;
#X connect 190 0 180 0;
#X connect 200 0 201 0;
#X connect 201 0 230 0;
#X connect 202 0 203 0;
#X connect 203 0 231 0;
#X connect 204 0 205 0;
#X connect 205 0 232 0;
#X connect 206 0 207 0;
#X connect 207 0 233 0;
#X connect 208 0 209 0;
#X connect 209 0 234 0;
#X connect 210 0 211 0;
#X connect 211 0 235 0;
#X connect 212 0 213 0;
#X connect 213 0 236 0;
#X connect 214 0 215 0;
#X connect 215 0 237 0;
#X connect 216 0 217 0;
#X connect 217 0 238 0;
#X connect 218 0 219 0;
#X connect 219 0 239 0;
#X connect 220 0 200 0;
#X connect 221 0 202 0;
#X connect 222 0 204 0;
#X connect 223 0 206 0;
#X connect 224 0 208 0;
#X connect 225 0 210 0;
#X connect 226 0 212 0;
#X connect 227 0 214 0;
#X connect 228 0 216 0;
#X connect 229 0 218 0;
