#N canvas 483 212 1075 829 10;
#X floatatom 6 -75 3 0 0 0 - - -, f 3;
#X floatatom 73 -75 3 0 0 0 - - -, f 3;
#X floatatom 140 -76 3 0 0 0 - - -, f 3;
#X floatatom 207 -76 3 0 0 0 - - -, f 3;
#X floatatom 272 -77 3 0 0 0 - - -, f 3;
#X floatatom 339 -77 3 0 0 0 - - -, f 3;
#X floatatom 406 -78 3 0 0 0 - - -, f 3;
#X floatatom 473 -78 3 0 0 0 - - -, f 3;
#X floatatom 537 -78 3 0 0 0 - - -, f 3;
#X floatatom 604 -80 3 0 0 0 - - -, f 3;
#X floatatom 6 40 3 0 0 0 - - -, f 3;
#X floatatom 73 40 3 0 0 0 - - -, f 3;
#X floatatom 140 39 3 0 0 0 - - -, f 3;
#X floatatom 207 39 3 0 0 0 - - -, f 3;
#X floatatom 272 38 3 0 0 0 - - -, f 3;
#X floatatom 339 38 3 0 0 0 - - -, f 3;
#X floatatom 406 37 3 0 0 0 - - -, f 3;
#X floatatom 473 37 3 0 0 0 - - -, f 3;
#X floatatom 537 40 3 0 0 0 - - -, f 3;
#X floatatom 604 40 3 0 0 0 - - -, f 3;
#X floatatom 5 167 3 0 0 0 - - -, f 3;
#X floatatom 78 167 3 0 0 0 - - -, f 3;
#X floatatom 151 167 3 0 0 0 - - -, f 3;
#X floatatom 224 167 3 0 0 0 - - -, f 3;
#X floatatom 299 167 3 0 0 0 - - -, f 3;
#X floatatom 372 167 3 0 0 0 - - -, f 3;
#X floatatom 445 167 3 0 0 0 - - -, f 3;
#X floatatom 518 167 3 0 0 0 - - -, f 3;
#X floatatom 593 165 3 0 0 0 - - -, f 3;
#X floatatom 666 165 3 0 0 0 - - -, f 3;
#X floatatom 3 300 3 0 0 0 - - -, f 3;
#X floatatom 76 300 3 0 0 0 - - -, f 3;
#X floatatom 149 300 3 0 0 0 - - -, f 3;
#X floatatom 222 300 3 0 0 0 - - -, f 3;
#X floatatom 297 300 3 0 0 0 - - -, f 3;
#X floatatom 370 300 3 0 0 0 - - -, f 3;
#X floatatom 443 300 3 0 0 0 - - -, f 3;
#X floatatom 516 300 3 0 0 0 - - -, f 3;
#X floatatom 591 298 3 0 0 0 - - -, f 3;
#X floatatom 664 298 3 0 0 0 - - -, f 3;
#X floatatom 13 431 3 0 0 0 - - -, f 3;
#X floatatom 92 431 3 0 0 0 - - -, f 3;
#X floatatom 167 432 3 0 0 0 - - -, f 3;
#X floatatom 246 432 3 0 0 0 - - -, f 3;
#X floatatom 321 430 3 0 0 0 - - -, f 3;
#X floatatom 400 430 3 0 0 0 - - -, f 3;
#X floatatom 475 431 3 0 0 0 - - -, f 3;
#X floatatom 554 431 3 0 0 0 - - -, f 3;
#X floatatom 640 432 3 0 0 0 - - -, f 3;
#X floatatom 719 432 3 0 0 0 - - -, f 3;
#X floatatom 6 550 3 0 0 0 - - -, f 3;
#X floatatom 85 550 3 0 0 0 - - -, f 3;
#X floatatom 160 551 3 0 0 0 - - -, f 3;
#X floatatom 239 551 3 0 0 0 - - -, f 3;
#X floatatom 314 549 3 0 0 0 - - -, f 3;
#X floatatom 393 549 3 0 0 0 - - -, f 3;
#X floatatom 468 550 3 0 0 0 - - -, f 3;
#X floatatom 547 550 3 0 0 0 - - -, f 3;
#X floatatom 633 551 3 0 0 0 - - -, f 3;
#X floatatom 712 551 3 0 0 0 - - -, f 3;
#X obj 6 -100 ctlin 1 2;
#X obj 73 -100 ctlin 2 2;
#X obj 141 -101 ctlin 3 2;
#X obj 207 -101 ctlin 4 2;
#X obj 272 -102 ctlin 5 2;
#X obj 339 -102 ctlin 6 2;
#X obj 406 -103 ctlin 7 2;
#X obj 474 -103 ctlin 8 2;
#X obj 537 -100 ctlin 9 2;
#X obj 604 -100 ctlin 10 2;
#X obj 6 -39 s noisyn_bang_1;
#X obj 107 -40 s noisyn_bang_2;
#X obj 209 -41 s noisyn_bang_3;
#X obj 310 -42 s noisyn_bang_4;
#X obj 410 -42 s noisyn_bang_5;
#X obj 511 -43 s noisyn_bang_6;
#X obj 614 -44 s noisyn_bang_7;
#X obj 714 -45 s noisyn_bang_8;
#X obj 824 -45 s noisyn_bang_9;
#X obj 921 -45 s noisyn_bang_10;
#X obj 6 15 ctlin 13 2;
#X obj 73 15 ctlin 14 2;
#X obj 140 14 ctlin 15 2;
#X obj 207 14 ctlin 16 2;
#X obj 272 13 ctlin 17 2;
#X obj 339 13 ctlin 18 2;
#X obj 406 12 ctlin 19 2;
#X obj 474 12 ctlin 20 2;
#X obj 537 15 ctlin 21 2;
#X obj 605 15 ctlin 22 2;
#X obj 6 102 s noisyn_vol_1;
#X obj 73 118 s noisyn_vol_2;
#X obj 140 101 s noisyn_vol_3;
#X obj 207 120 s noisyn_vol_4;
#X obj 272 100 s noisyn_vol_5;
#X obj 339 117 s noisyn_vol_6;
#X obj 406 99 s noisyn_vol_7;
#X obj 473 119 s noisyn_vol_8;
#X obj 537 102 s noisyn_vol_9;
#X obj 604 119 s noisyn_vol_10;
#X obj 7 77 / 500, f 6;
#X obj 74 78 / 500, f 6;
#X obj 141 77 / 500, f 6;
#X obj 208 77 / 500, f 6;
#X obj 273 76 / 500, f 6;
#X obj 340 76 / 500, f 6;
#X obj 407 75 / 500, f 6;
#X obj 474 75 / 500, f 6;
#X obj 538 78 / 500, f 6;
#X obj 605 78 / 500, f 6;
#X obj 5 142 ctlin 25 2;
#X obj 78 142 ctlin 26 2;
#X obj 151 142 ctlin 27 2;
#X obj 224 142 ctlin 28 2;
#X obj 299 142 ctlin 29 2;
#X obj 372 142 ctlin 30 2;
#X obj 445 142 ctlin 31 2;
#X obj 517 142 ctlin 32 2;
#X obj 593 140 ctlin 33 2;
#X obj 665 140 ctlin 34 2;
#X obj 5 229 s noisyn_col_1;
#X obj 78 253 s noisyn_col_2;
#X obj 151 230 s noisyn_col_3;
#X obj 225 250 s noisyn_col_4;
#X obj 299 229 s noisyn_col_5;
#X obj 373 248 s noisyn_col_6;
#X obj 445 229 s noisyn_col_7;
#X obj 519 248 s noisyn_col_8;
#X obj 594 227 s noisyn_col_9;
#X obj 666 251 s noisyn_col_10;
#X obj 6 205 / 1, f 6;
#X obj 79 205 / 1, f 6;
#X obj 152 205 / 1, f 6;
#X obj 225 205 / 1, f 6;
#X obj 300 205 / 1, f 6;
#X obj 373 205 / 1, f 6;
#X obj 446 205 / 1, f 6;
#X obj 520 205 / 1, f 6;
#X obj 594 203 / 1, f 6;
#X obj 667 203 / 1, f 6;
#X obj 13 406 ctlin 49 2;
#X obj 167 407 ctlin 51 2;
#X obj 3 275 ctlin 37 2;
#X obj 76 275 ctlin 38 2;
#X obj 149 274 ctlin 39 2;
#X obj 222 275 ctlin 40 2;
#X obj 297 275 ctlin 41 2;
#X obj 370 275 ctlin 42 2;
#X obj 443 275 ctlin 43 2;
#X obj 515 276 ctlin 44 2;
#X obj 591 273 ctlin 45 2;
#X obj 664 273 ctlin 46 2;
#X obj 3 383 s noisyn_lin_1;
#X obj 76 362 s noisyn_lin_2;
#X obj 149 381 s noisyn_lin_3;
#X obj 222 362 s noisyn_lin_4;
#X obj 297 379 s noisyn_lin_5;
#X obj 370 362 s noisyn_lin_6;
#X obj 443 376 s noisyn_lin_7;
#X obj 517 363 s noisyn_lin_8;
#X obj 592 380 s noisyn_lin_9;
#X obj 664 360 s noisyn_lin_10;
#X obj 4 338 * 100;
#X obj 77 338 * 100, f 6;
#X obj 150 338 * 100, f 6;
#X obj 223 338 * 100, f 6;
#X obj 298 338 * 100, f 6;
#X obj 371 338 * 100, f 6;
#X obj 444 338 * 100, f 6;
#X obj 517 338 * 100, f 6;
#X obj 592 336 * 100, f 6;
#X obj 665 336 * 100, f 6;
#X obj 246 407 ctlin 52 2;
#X obj 321 405 ctlin 53 2;
#X obj 400 405 ctlin 54 2;
#X obj 475 406 ctlin 55 2;
#X obj 554 406 ctlin 56 2;
#X obj 640 407 ctlin 57 2;
#X obj 720 407 ctlin 58 2;
#X obj 6 525 ctlin 61 2;
#X obj 85 525 ctlin 62 2;
#X obj 159 526 ctlin 63 2;
#X obj 240 526 ctlin 64 2;
#X obj 314 524 ctlin 65 2;
#X obj 393 524 ctlin 66 2;
#X obj 468 525 ctlin 67 2;
#X obj 547 525 ctlin 68 2;
#X obj 633 526 ctlin 69 2;
#X obj 712 526 ctlin 70 2;
#X obj 12 488 s adcmidi_1;
#X obj 90 406 ctlin 50 2;
#X obj 91 488 s adcmidi_3;
#X obj 166 488 s adcmidi_5;
#X obj 245 489 s adcmidi_7;
#X obj 320 487 s adcmidi_9;
#X obj 399 487 s adcmidi_11;
#X obj 474 488 s adcmidi_13;
#X obj 553 488 s adcmidi_15;
#X obj 639 489 s adcmidi_17;
#X obj 718 489 s adcmidi_19;
#X obj 5 607 s adcmidi_2;
#X obj 84 607 s adcmidi_4;
#X obj 159 606 s adcmidi_6;
#X obj 238 608 s adcmidi_8;
#X obj 313 606 s adcmidi_10;
#X obj 392 606 s adcmidi_12;
#X obj 466 607 s adcmidi_14;
#X obj 546 607 s adcmidi_16;
#X obj 632 608 s adcmidi_18;
#X obj 711 608 s adcmidi_20;
#X obj 14 459 / 500;
#X obj 93 459 / 500;
#X obj 168 460 / 500;
#X obj 247 460 / 500;
#X obj 322 458 / 500;
#X obj 401 458 / 500;
#X obj 14 459 / 500;
#X obj 476 459 / 500;
#X obj 555 459 / 500;
#X obj 641 460 / 500;
#X obj 720 460 / 500;
#X obj 7 578 / 500;
#X obj 86 578 / 500;
#X obj 161 579 / 500;
#X obj 240 579 / 500;
#X obj 315 577 / 500;
#X obj 394 577 / 500;
#X obj 469 579 / 500;
#X obj 548 578 / 500;
#X obj 634 579 / 500;
#X obj 714 579 / 500;
#X connect 0 0 70 0;
#X connect 1 0 71 0;
#X connect 2 0 72 0;
#X connect 3 0 73 0;
#X connect 4 0 74 0;
#X connect 5 0 75 0;
#X connect 6 0 76 0;
#X connect 7 0 77 0;
#X connect 8 0 78 0;
#X connect 9 0 79 0;
#X connect 10 0 100 0;
#X connect 11 0 101 0;
#X connect 12 0 102 0;
#X connect 13 0 103 0;
#X connect 14 0 104 0;
#X connect 15 0 105 0;
#X connect 16 0 106 0;
#X connect 17 0 107 0;
#X connect 18 0 108 0;
#X connect 19 0 109 0;
#X connect 20 0 130 0;
#X connect 21 0 131 0;
#X connect 22 0 132 0;
#X connect 23 0 133 0;
#X connect 24 0 134 0;
#X connect 25 0 135 0;
#X connect 26 0 136 0;
#X connect 27 0 137 0;
#X connect 28 0 138 0;
#X connect 29 0 139 0;
#X connect 30 0 162 0;
#X connect 31 0 163 0;
#X connect 32 0 164 0;
#X connect 33 0 165 0;
#X connect 34 0 166 0;
#X connect 35 0 167 0;
#X connect 36 0 168 0;
#X connect 37 0 169 0;
#X connect 38 0 170 0;
#X connect 39 0 171 0;
#X connect 40 0 210 0;
#X connect 41 0 211 0;
#X connect 42 0 212 0;
#X connect 43 0 213 0;
#X connect 44 0 214 0;
#X connect 45 0 215 0;
#X connect 46 0 217 0;
#X connect 47 0 218 0;
#X connect 48 0 219 0;
#X connect 49 0 220 0;
#X connect 50 0 221 0;
#X connect 51 0 222 0;
#X connect 52 0 223 0;
#X connect 53 0 224 0;
#X connect 54 0 225 0;
#X connect 55 0 226 0;
#X connect 56 0 227 0;
#X connect 57 0 228 0;
#X connect 58 0 229 0;
#X connect 59 0 230 0;
#X connect 60 0 0 0;
#X connect 61 0 1 0;
#X connect 62 0 2 0;
#X connect 63 0 3 0;
#X connect 64 0 4 0;
#X connect 65 0 5 0;
#X connect 66 0 6 0;
#X connect 67 0 7 0;
#X connect 68 0 8 0;
#X connect 69 0 9 0;
#X connect 80 0 10 0;
#X connect 81 0 11 0;
#X connect 82 0 12 0;
#X connect 83 0 13 0;
#X connect 84 0 14 0;
#X connect 85 0 15 0;
#X connect 86 0 16 0;
#X connect 87 0 17 0;
#X connect 88 0 18 0;
#X connect 89 0 19 0;
#X connect 100 0 90 0;
#X connect 101 0 91 0;
#X connect 102 0 92 0;
#X connect 103 0 93 0;
#X connect 104 0 94 0;
#X connect 105 0 95 0;
#X connect 106 0 96 0;
#X connect 107 0 97 0;
#X connect 108 0 98 0;
#X connect 109 0 99 0;
#X connect 110 0 20 0;
#X connect 111 0 21 0;
#X connect 112 0 22 0;
#X connect 113 0 23 0;
#X connect 114 0 24 0;
#X connect 115 0 25 0;
#X connect 116 0 26 0;
#X connect 117 0 27 0;
#X connect 118 0 28 0;
#X connect 119 0 29 0;
#X connect 130 0 120 0;
#X connect 131 0 121 0;
#X connect 132 0 122 0;
#X connect 133 0 123 0;
#X connect 134 0 124 0;
#X connect 135 0 125 0;
#X connect 136 0 126 0;
#X connect 137 0 127 0;
#X connect 138 0 128 0;
#X connect 139 0 129 0;
#X connect 140 0 40 0;
#X connect 141 0 42 0;
#X connect 142 0 30 0;
#X connect 143 0 31 0;
#X connect 144 0 32 0;
#X connect 145 0 33 0;
#X connect 146 0 34 0;
#X connect 147 0 35 0;
#X connect 148 0 36 0;
#X connect 149 0 37 0;
#X connect 150 0 38 0;
#X connect 151 0 39 0;
#X connect 162 0 152 0;
#X connect 163 0 153 0;
#X connect 164 0 154 0;
#X connect 165 0 155 0;
#X connect 166 0 156 0;
#X connect 167 0 157 0;
#X connect 168 0 158 0;
#X connect 169 0 159 0;
#X connect 170 0 160 0;
#X connect 171 0 161 0;
#X connect 172 0 43 0;
#X connect 173 0 44 0;
#X connect 174 0 45 0;
#X connect 175 0 46 0;
#X connect 176 0 47 0;
#X connect 177 0 48 0;
#X connect 178 0 49 0;
#X connect 179 0 50 0;
#X connect 180 0 51 0;
#X connect 181 0 52 0;
#X connect 182 0 53 0;
#X connect 183 0 54 0;
#X connect 184 0 55 0;
#X connect 185 0 56 0;
#X connect 186 0 57 0;
#X connect 187 0 58 0;
#X connect 188 0 59 0;
#X connect 190 0 41 0;
#X connect 210 0 189 0;
#X connect 211 0 191 0;
#X connect 212 0 192 0;
#X connect 213 0 193 0;
#X connect 214 0 194 0;
#X connect 215 0 195 0;
#X connect 217 0 196 0;
#X connect 218 0 197 0;
#X connect 219 0 198 0;
#X connect 220 0 199 0;
#X connect 221 0 200 0;
#X connect 222 0 201 0;
#X connect 223 0 202 0;
#X connect 224 0 203 0;
#X connect 225 0 204 0;
#X connect 226 0 205 0;
#X connect 227 0 206 0;
#X connect 228 0 207 0;
#X connect 229 0 208 0;
#X connect 230 0 209 0;
