#N canvas 163 330 1572 682 10;
#X floatatom 6 -75 3 0 0 0 - - -, f 3;
#X obj 6 -100 ctlin 1 1;
#X floatatom 69 -75 3 0 0 0 - - -, f 3;
#X floatatom 131 -74 3 0 0 0 - - -, f 3;
#X floatatom 194 -74 3 0 0 0 - - -, f 3;
#X floatatom 257 -74 3 0 0 0 - - -, f 3;
#X floatatom 320 -74 3 0 0 0 - - -, f 3;
#X floatatom 382 -73 3 0 0 0 - - -, f 3;
#X floatatom 445 -73 3 0 0 0 - - -, f 3;
#X floatatom 509 -74 3 0 0 0 - - -, f 3;
#X floatatom 572 -74 3 0 0 0 - - -, f 3;
#X floatatom 634 -73 3 0 0 0 - - -, f 3;
#X floatatom 697 -73 3 0 0 0 - - -, f 3;
#X obj 69 -100 ctlin 2 1;
#X obj 131 -99 ctlin 3 1;
#X obj 194 -99 ctlin 4 1;
#X obj 257 -99 ctlin 5 1;
#X obj 320 -99 ctlin 6 1;
#X obj 382 -98 ctlin 7 1;
#X obj 445 -98 ctlin 8 1;
#X obj 572 -99 ctlin 10 1;
#X obj 634 -98 ctlin 11 1;
#X obj 697 -98 ctlin 12 1;
#X obj 509 -99 ctlin 9 1;
#X floatatom 6 50 3 0 0 0 - - -, f 3;
#X floatatom 69 50 3 0 0 0 - - -, f 3;
#X floatatom 131 51 3 0 0 0 - - -, f 3;
#X floatatom 194 51 3 0 0 0 - - -, f 3;
#X floatatom 257 51 3 0 0 0 - - -, f 3;
#X floatatom 320 51 3 0 0 0 - - -, f 3;
#X floatatom 382 52 3 0 0 0 - - -, f 3;
#X floatatom 445 52 3 0 0 0 - - -, f 3;
#X floatatom 509 51 3 0 0 0 - - -, f 3;
#X floatatom 572 51 3 0 0 0 - - -, f 3;
#X floatatom 634 52 3 0 0 0 - - -, f 3;
#X floatatom 697 52 3 0 0 0 - - -, f 3;
#X obj 6 25 ctlin 13 1;
#X obj 69 25 ctlin 14 1;
#X obj 131 26 ctlin 15 1;
#X obj 194 26 ctlin 16 1;
#X obj 257 26 ctlin 17 1;
#X obj 320 26 ctlin 18 1;
#X obj 382 27 ctlin 19 1;
#X obj 445 27 ctlin 20 1;
#X obj 509 26 ctlin 21 1;
#X obj 572 26 ctlin 22 1;
#X obj 634 27 ctlin 23 1;
#X obj 697 27 ctlin 24 1;
#X obj 6 -13 s adcvol_1;
#X obj 69 -14 s adcvol_2;
#X obj 131 -13 s adcvol_3;
#X obj 194 -13 s adcvol_4;
#X obj 257 -13 s adcvol_5;
#X obj 320 -14 s adcvol_6;
#X obj 382 -13 s adcvol_7;
#X obj 445 -13 s adcvol_8;
#X obj 509 -16 s adcvol_9;
#X obj 572 -16 s adcvol_10;
#X obj 7 -37 / 127, f 6;
#X obj 70 -36 / 127, f 6;
#X obj 132 -38 / 127, f 6;
#X obj 195 -38 / 127, f 6;
#X obj 258 -37 / 127, f 6;
#X obj 321 -37 / 127, f 6;
#X obj 383 -38 / 127, f 6;
#X obj 446 -38 / 127, f 6;
#X obj 510 -42 / 127, f 6;
#X obj 573 -42 / 127, f 6;
#X obj 634 107 s;
#X obj 697 107 s;
#X floatatom 4 169 3 0 0 0 - - -, f 3;
#X floatatom 67 169 3 0 0 0 - - -, f 3;
#X floatatom 129 170 3 0 0 0 - - -, f 3;
#X floatatom 192 170 3 0 0 0 - - -, f 3;
#X floatatom 255 170 3 0 0 0 - - -, f 3;
#X floatatom 318 170 3 0 0 0 - - -, f 3;
#X floatatom 380 171 3 0 0 0 - - -, f 3;
#X floatatom 443 171 3 0 0 0 - - -, f 3;
#X floatatom 507 170 3 0 0 0 - - -, f 3;
#X floatatom 570 170 3 0 0 0 - - -, f 3;
#X floatatom 632 171 3 0 0 0 - - -, f 3;
#X floatatom 695 171 3 0 0 0 - - -, f 3;
#X obj 4 194 s;
#X obj 67 194 s;
#X obj 129 194 s;
#X obj 192 194 s;
#X obj 255 194 s;
#X obj 318 194 s;
#X obj 380 194 s;
#X obj 443 194 s;
#X obj 507 191 s;
#X obj 570 191 s;
#X obj 632 191 s;
#X obj 695 191 s;
#X obj 4 144 ctlin 25 1;
#X obj 67 144 ctlin 26 1;
#X obj 129 145 ctlin 27 1;
#X obj 192 145 ctlin 28 1;
#X obj 255 145 ctlin 29 1;
#X obj 318 145 ctlin 30 1;
#X obj 380 146 ctlin 31 1;
#X obj 443 146 ctlin 32 1;
#X obj 507 145 ctlin 33 1;
#X obj 569 145 ctlin 34 1;
#X obj 632 146 ctlin 35 1;
#X obj 695 146 ctlin 36 1;
#X floatatom 4 248 3 0 0 0 - - -, f 3;
#X floatatom 67 248 3 0 0 0 - - -, f 3;
#X floatatom 129 249 3 0 0 0 - - -, f 3;
#X floatatom 192 249 3 0 0 0 - - -, f 3;
#X floatatom 255 249 3 0 0 0 - - -, f 3;
#X floatatom 318 249 3 0 0 0 - - -, f 3;
#X floatatom 380 250 3 0 0 0 - - -, f 3;
#X floatatom 443 250 3 0 0 0 - - -, f 3;
#X floatatom 507 249 3 0 0 0 - - -, f 3;
#X floatatom 570 249 3 0 0 0 - - -, f 3;
#X floatatom 632 250 3 0 0 0 - - -, f 3;
#X floatatom 695 250 3 0 0 0 - - -, f 3;
#X obj 4 273 s;
#X obj 67 273 s;
#X obj 129 273 s;
#X obj 192 273 s;
#X obj 255 273 s;
#X obj 318 273 s;
#X obj 380 273 s;
#X obj 443 273 s;
#X obj 507 270 s;
#X obj 570 270 s;
#X obj 632 270 s;
#X obj 695 270 s;
#X floatatom 2 332 3 0 0 0 - - -, f 3;
#X floatatom 65 332 3 0 0 0 - - -, f 3;
#X floatatom 127 333 3 0 0 0 - - -, f 3;
#X floatatom 190 333 3 0 0 0 - - -, f 3;
#X floatatom 253 333 3 0 0 0 - - -, f 3;
#X floatatom 316 333 3 0 0 0 - - -, f 3;
#X floatatom 378 334 3 0 0 0 - - -, f 3;
#X floatatom 441 334 3 0 0 0 - - -, f 3;
#X floatatom 505 333 3 0 0 0 - - -, f 3;
#X floatatom 568 333 3 0 0 0 - - -, f 3;
#X floatatom 630 334 3 0 0 0 - - -, f 3;
#X floatatom 693 334 3 0 0 0 - - -, f 3;
#X obj 4 223 ctlin 37 1;
#X obj 67 223 ctlin 38 1;
#X obj 129 224 ctlin 39 1;
#X obj 192 224 ctlin 40 1;
#X obj 255 225 ctlin 41 1;
#X obj 318 224 ctlin 42 1;
#X obj 380 225 ctlin 43 1;
#X obj 444 225 ctlin 44 1;
#X obj 507 224 ctlin 45 1;
#X obj 570 224 ctlin 46 1;
#X obj 632 225 ctlin 47 1;
#X obj 696 225 ctlin 48 1;
#X obj 2 307 ctlin 49 1;
#X obj 65 307 ctlin 50 1;
#X obj 127 308 ctlin 51 1;
#X obj 190 308 ctlin 52 1;
#X obj 253 308 ctlin 53 1;
#X obj 317 308 ctlin 54 1;
#X obj 378 310 ctlin 55 1;
#X obj 441 309 ctlin 56 1;
#X obj 505 308 ctlin 57 1;
#X obj 567 308 ctlin 58 1;
#X obj 630 309 ctlin 59 1;
#X obj 693 309 ctlin 60 1;
#X floatatom -1 485 3 0 0 0 - - -, f 3;
#X floatatom 62 485 3 0 0 0 - - -, f 3;
#X floatatom 124 486 3 0 0 0 - - -, f 3;
#X floatatom 187 486 3 0 0 0 - - -, f 3;
#X floatatom 250 486 3 0 0 0 - - -, f 3;
#X floatatom 313 486 3 0 0 0 - - -, f 3;
#X floatatom 375 487 3 0 0 0 - - -, f 3;
#X floatatom 438 487 3 0 0 0 - - -, f 3;
#X floatatom 502 486 3 0 0 0 - - -, f 3;
#X floatatom 565 486 3 0 0 0 - - -, f 3;
#X floatatom 627 487 3 0 0 0 - - -, f 3;
#X floatatom 690 487 3 0 0 0 - - -, f 3;
#X obj -1 510 s;
#X obj 62 510 s;
#X obj 124 510 s;
#X obj 187 510 s;
#X obj 250 510 s;
#X obj 313 510 s;
#X obj 375 510 s;
#X obj 438 510 s;
#X obj 502 507 s;
#X obj 565 507 s;
#X obj 627 507 s;
#X obj 690 507 s;
#X obj -1 461 ctlin 61 1;
#X obj 62 460 ctlin 62 1;
#X obj 124 460 ctlin 63 1;
#X obj 187 461 ctlin 64 1;
#X obj 250 461 ctlin 65 1;
#X obj 313 461 ctlin 66 1;
#X obj 375 463 ctlin 67 1;
#X obj 439 462 ctlin 68 1;
#X obj 502 461 ctlin 69 1;
#X obj 563 461 ctlin 70 1;
#X obj 627 462 ctlin 71 1;
#X obj 690 462 ctlin 72 1;
#X obj 5 111 s adcvol_11;
#X obj 69 110 s adcvol_12;
#X obj 131 110 s adcvol_13;
#X obj 194 110 s adcvol_14;
#X obj 257 110 s adcvol_15;
#X obj 320 110 s adcvol_16;
#X obj 382 110 s adcvol_17;
#X obj 445 110 s adcvol_18;
#X obj 509 107 s adcvol_19;
#X obj 572 107 s adcvol_20;
#X obj 5 81 / 127, f 6;
#X obj 68 82 / 127, f 6;
#X obj 130 80 / 127, f 6;
#X obj 193 80 / 127, f 6;
#X obj 256 81 / 127, f 6;
#X obj 319 81 / 127, f 6;
#X obj 381 80 / 127, f 6;
#X obj 444 80 / 127, f 6;
#X obj 508 76 / 127, f 6;
#X obj 571 76 / 127, f 6;
#X obj 632 399 s;
#X obj 3 373 / 127, f 6;
#X obj 66 374 / 127, f 6;
#X obj 128 372 / 127, f 6;
#X obj 191 372 / 127, f 6;
#X obj 254 373 / 127, f 6;
#X obj 317 373 / 127, f 6;
#X obj 379 372 / 127, f 6;
#X obj 442 372 / 127, f 6;
#X obj 506 368 / 127, f 6;
#X obj 569 368 / 127, f 6;
#X obj 3 403 s adcvol_23;
#X obj 67 402 s adcvol_24;
#X obj 129 402 s adcvol_25;
#X obj 192 402 s adcvol_26;
#X obj 255 402 s adcvol_27;
#X obj 319 402 s adcvol_28;
#X obj 380 402 s adcvol_29;
#X obj 443 402 s adcvol_30;
#X obj 507 399 s adcvol_31;
#X obj 570 399 s adcvol_32;
#X connect 0 0 58 0;
#X connect 1 0 0 0;
#X connect 2 0 59 0;
#X connect 3 0 60 0;
#X connect 4 0 61 0;
#X connect 5 0 62 0;
#X connect 6 0 63 0;
#X connect 7 0 64 0;
#X connect 8 0 65 0;
#X connect 9 0 66 0;
#X connect 10 0 67 0;
#X connect 13 0 2 0;
#X connect 14 0 3 0;
#X connect 15 0 4 0;
#X connect 16 0 5 0;
#X connect 17 0 6 0;
#X connect 18 0 7 0;
#X connect 19 0 8 0;
#X connect 20 0 10 0;
#X connect 21 0 11 0;
#X connect 22 0 12 0;
#X connect 23 0 9 0;
#X connect 24 0 212 0;
#X connect 25 0 213 0;
#X connect 26 0 214 0;
#X connect 27 0 215 0;
#X connect 28 0 216 0;
#X connect 29 0 217 0;
#X connect 30 0 218 0;
#X connect 31 0 219 0;
#X connect 32 0 220 0;
#X connect 33 0 221 0;
#X connect 36 0 24 0;
#X connect 37 0 25 0;
#X connect 38 0 26 0;
#X connect 39 0 27 0;
#X connect 40 0 28 0;
#X connect 41 0 29 0;
#X connect 42 0 30 0;
#X connect 43 0 31 0;
#X connect 44 0 32 0;
#X connect 45 0 33 0;
#X connect 46 0 34 0;
#X connect 47 0 35 0;
#X connect 58 0 48 0;
#X connect 59 0 49 0;
#X connect 60 0 50 0;
#X connect 61 0 51 0;
#X connect 62 0 52 0;
#X connect 63 0 53 0;
#X connect 64 0 54 0;
#X connect 65 0 55 0;
#X connect 66 0 56 0;
#X connect 67 0 57 0;
#X connect 70 0 82 0;
#X connect 71 0 83 0;
#X connect 72 0 84 0;
#X connect 73 0 85 0;
#X connect 74 0 86 0;
#X connect 75 0 87 0;
#X connect 76 0 88 0;
#X connect 77 0 89 0;
#X connect 78 0 90 0;
#X connect 79 0 91 0;
#X connect 80 0 92 0;
#X connect 81 0 93 0;
#X connect 94 0 70 0;
#X connect 95 0 71 0;
#X connect 96 0 72 0;
#X connect 97 0 73 0;
#X connect 98 0 74 0;
#X connect 99 0 75 0;
#X connect 100 0 76 0;
#X connect 101 0 77 0;
#X connect 102 0 78 0;
#X connect 103 0 79 0;
#X connect 104 0 80 0;
#X connect 105 0 81 0;
#X connect 106 0 118 0;
#X connect 107 0 119 0;
#X connect 108 0 120 0;
#X connect 109 0 121 0;
#X connect 110 0 122 0;
#X connect 111 0 123 0;
#X connect 112 0 124 0;
#X connect 113 0 125 0;
#X connect 114 0 126 0;
#X connect 115 0 127 0;
#X connect 116 0 128 0;
#X connect 117 0 129 0;
#X connect 130 0 223 0;
#X connect 131 0 224 0;
#X connect 132 0 225 0;
#X connect 133 0 226 0;
#X connect 134 0 227 0;
#X connect 135 0 228 0;
#X connect 136 0 229 0;
#X connect 137 0 230 0;
#X connect 138 0 231 0;
#X connect 139 0 232 0;
#X connect 142 0 106 0;
#X connect 143 0 107 0;
#X connect 144 0 108 0;
#X connect 145 0 109 0;
#X connect 146 0 110 0;
#X connect 147 0 111 0;
#X connect 148 0 112 0;
#X connect 149 0 113 0;
#X connect 150 0 114 0;
#X connect 151 0 115 0;
#X connect 152 0 116 0;
#X connect 153 0 117 0;
#X connect 154 0 130 0;
#X connect 155 0 131 0;
#X connect 156 0 132 0;
#X connect 157 0 133 0;
#X connect 158 0 134 0;
#X connect 159 0 135 0;
#X connect 160 0 136 0;
#X connect 161 0 137 0;
#X connect 162 0 138 0;
#X connect 163 0 139 0;
#X connect 164 0 140 0;
#X connect 165 0 141 0;
#X connect 166 0 178 0;
#X connect 167 0 179 0;
#X connect 168 0 180 0;
#X connect 169 0 181 0;
#X connect 170 0 182 0;
#X connect 171 0 183 0;
#X connect 172 0 184 0;
#X connect 173 0 185 0;
#X connect 174 0 186 0;
#X connect 175 0 187 0;
#X connect 176 0 188 0;
#X connect 177 0 189 0;
#X connect 190 0 166 0;
#X connect 191 0 167 0;
#X connect 192 0 168 0;
#X connect 193 0 169 0;
#X connect 194 0 170 0;
#X connect 195 0 171 0;
#X connect 196 0 172 0;
#X connect 197 0 173 0;
#X connect 198 0 174 0;
#X connect 199 0 175 0;
#X connect 200 0 176 0;
#X connect 201 0 177 0;
#X connect 212 0 202 0;
#X connect 213 0 203 0;
#X connect 214 0 204 0;
#X connect 215 0 205 0;
#X connect 216 0 206 0;
#X connect 217 0 207 0;
#X connect 218 0 208 0;
#X connect 219 0 209 0;
#X connect 220 0 210 0;
#X connect 221 0 211 0;
#X connect 223 0 233 0;
#X connect 224 0 234 0;
#X connect 225 0 235 0;
#X connect 226 0 236 0;
#X connect 227 0 237 0;
#X connect 228 0 238 0;
#X connect 229 0 239 0;
#X connect 230 0 240 0;
#X connect 231 0 241 0;
#X connect 232 0 242 0;
