#N canvas 480 333 391 459 10;
#X obj 82 201 cnv 15 30 18 empty \$0-Y 3 3 11 0 10 -233017 -1 0;
#X obj 51 201 cnv 15 30 18 empty \$0-X 302 3 11 0 10 -233017 -1 0;
#X msg 144 344 label \$1;
#X obj 144 368 send \$0-Y;
#X obj 46 290 unpack float float float;
#X msg 54 344 label \$1;
#X obj 54 368 send \$0-X;
#X obj 149 186 select 0;
#X obj 149 106 route float bang;
#X obj 46 251 cyclone/gate 2;
#N canvas 941 161 454 304 capture 0;
#X obj 292 96 loadbang;
#X obj 148 184 route motion;
#X msg 260 125 1;
#X msg 196 125 0;
#X obj 196 76 inlet;
#X obj 260 74 inlet;
#X obj 148 208 outlet;
#X obj 260 95 bang;
#X obj 196 100 bang;
#X obj 148 160 spigot;
#X obj 148 53 iemguts/receivecanvas 2;
#X connect 0 0 2 0;
#X connect 1 0 6 0;
#X connect 2 0 9 1;
#X connect 3 0 9 1;
#X connect 4 0 8 0;
#X connect 5 0 7 0;
#X connect 7 0 2 0;
#X connect 8 0 3 0;
#X connect 9 0 1 0;
#X connect 10 0 9 0;
#X restore 149 251 pd capture motion;
#X obj 149 165 trigger float bang;
#X msg 254 206 1;
#X obj 195 129 trigger bang bang;
#X msg 294 172 2;
#X obj 46 392 s tab_x;
#X obj 116 394 s tab_y;
#X obj 149 59 initbang;
#X msg 149 83 1;
#X obj 54 320 makesymbol %s;
#X obj 144 320 makesymbol %s;
#X connect 2 0 3 0;
#X connect 4 0 15 0;
#X connect 4 0 19 0;
#X connect 4 1 16 0;
#X connect 4 1 20 0;
#X connect 5 0 6 0;
#X connect 7 0 10 0;
#X connect 7 1 10 1;
#X connect 8 0 11 0;
#X connect 8 1 13 0;
#X connect 9 0 4 0;
#X connect 9 1 10 0;
#X connect 9 1 4 0;
#X connect 10 0 9 1;
#X connect 11 0 7 0;
#X connect 11 1 12 0;
#X connect 12 0 9 0;
#X connect 13 0 10 1;
#X connect 13 1 14 0;
#X connect 14 0 9 0;
#X connect 17 0 18 0;
#X connect 18 0 8 0;
#X connect 19 0 5 0;
#X connect 20 0 2 0;
#X coords 0 -1 1 1 63 20 2 50 200;
