#N canvas 184 288 1042 690 10;
#X obj 101 101 cnv 15 83 173 empty empty empty 20 12 0 14 -260097 -66577
0;
#X obj 610 -250 \$1;
#X msg 636 -97 disconnect;
#X msg 636 -139 connect 192.168.1.\$1 \$2;
#X obj 636 -247 \$2;
#X obj 662 -249 \$3;
#X obj 696 -188 r net_connect;
#X msg 662 -216 set;
#X msg 636 -186 add2 \$1;
#X obj 263 143 sel 1;
#X msg 263 212 color 1000 \$1 1;
#X msg 263 163 color 283;
#X msg 290 189 color 417;
#X obj 263 -368 r freq_global;
#X obj 263 -289 r lfo_global;
#X obj 262 -210 r freq_volume_osc_line;
#X obj 107 168 knob 30 30 0 8 0 0 \$0-osc_line_lfo1 osc_line_lfo1_global
empty 0 -8 0 8 4.94726e+08 22035 4.93397e+08 0 1;
#X obj 107 131 knob 30 30 60 6000 0 0 \$0-osc_line_freq1 osc_line_freq1_global
empty 0 -8 0 8 4.94726e+08 22035 4.93397e+08 52 1;
#X obj 107 105 hsl 71 8 100 10000 0 0 \$0-osc_line_time1 osc_line_time1_global
time_osc 4 5 0 8 -33289 -262144 -262144 0 1;
#X obj 146 131 knob 30 30 60 6000 0 0 \$0-osc_line_freq2 osc_line_freq2_global
empty 0 -8 0 8 4.94726e+08 22035 4.93397e+08 0 1;
#X obj 146 168 knob 30 30 0 8 0 0 \$0-osc_line_lfo2 osc_line_lfo2_global
empty 0 -8 0 8 4.94726e+08 22035 4.93397e+08 0 1;
#X obj 107 205 knob 30 30 0 0.1 0 0 \$0-osc_line_vol1 osc_line_vol1_global
empty 0 -8 0 8 4.94726e+08 22035 4.93397e+08 0 1;
#X obj 146 205 knob 30 30 0 0.1 0 0 \$0-osc_line_vol2 osc_line_vol2_global
empty 0 -8 0 8 4.94726e+08 22035 4.93397e+08 0 1;
#X obj 107 117 hsl 71 8 1000 5000 1 0 \$0-osc_line_time2 \$0-osc_line_time2FOO
time_lfo 4 5 0 8 -33289 -262144 -262144 0 1;
#N canvas 619 326 450 300 (subpatch) 0;
#X obj 104 101 hsl 63 24 0 127 0 0 panic_synth panic_synthFOO randomize
10 12 0 8 -1 -1 -262144 0 0;
#X obj 101 130 once;
#X obj 101 152 bng 15 250 50 0 empty empty empty 17 7 0 10 -262144
-1 -1;
#X obj 136 127 delay 200;
#X msg 101 78 color \$1 \$2 \$3;
#X obj 101 172 t b b;
#X obj 101 211 delay 100;
#X obj 102 23 inlet;
#X obj 102 48 bang;
#X msg 148 170 0 0 82;
#X msg 101 232 82 82 0;
#X obj 68 257 outlet;
#X obj 150 23 r randomize_osc_line;
#X obj 150 47 bng 15 250 50 0 empty empty empty 17 7 0 10 -262144 -1
-1;
#X connect 0 0 1 0;
#X connect 1 0 2 0;
#X connect 2 0 3 0;
#X connect 2 0 5 0;
#X connect 2 0 11 0;
#X connect 3 0 1 1;
#X connect 4 0 0 0;
#X connect 5 0 6 0;
#X connect 5 1 9 0;
#X connect 6 0 10 0;
#X connect 7 0 8 0;
#X connect 8 0 0 0;
#X connect 9 0 4 0;
#X connect 10 0 4 0;
#X connect 12 0 13 0;
#X connect 13 0 0 0;
#X coords 0 -1 1 1 70 26 2 100 100;
#X restore 107 244 pd;
#X obj 263 -345 r \$0-osc_line_freq1;
#X obj 388 -344 r \$0-osc_line_freq2;
#X obj 263 -187 r \$0-osc_line_vol1;
#X obj 381 -188 r \$0-osc_line_vol2;
#X obj 263 -262 r \$0-osc_line_lfo1;
#X obj 381 -263 r \$0-osc_line_lfo2;
#X obj 277 -104 r \$0-osc_line_time1;
#X obj 409 -106 r \$0-osc_line_time2;
#X floatatom 193 -291 5 0 0 0 - - -, f 5;
#X msg 636 -162 100 11000;
#X obj 582 -290 bng 15 250 50 0 empty empty empty 17 7 0 10 -262144
-1 -1;
#X obj 17 88 random 5000;
#X obj -75 149 random 8;
#X obj 107 -37 r osc_line_volume_master;
#X obj 107 -11 r osc_line_freq_master;
#X obj 107 16 r osc_line_lfo_master;
#X obj 610 -231 * 2;
#X obj 575 -225 - 1;
#X obj 107 -103 iem_r;
#X obj 147 -112 iem_r;
#X msg 107 -155 set synth_osc_\$1;
#X msg 147 -134 set synth_osc_\$1;
#X floatatom 570 -185 5 0 0 0 - - -, f 5;
#X floatatom 609 -184 5 0 0 0 - - -, f 5;
#X obj 148 -89 / 10;
#X obj 106 -80 / 10;
#X obj 610 -291 initbang;
#X msg 505 1 set speaker_\$1;
#X obj 505 23 iem_r;
#X obj 505 50 spigot;
#X obj 550 25 r playhead_oscillators;
#X obj 505 73 maxlib/scale 0 100 0 0.1;
#X msg 706 2 set speaker_\$1;
#X obj 706 24 iem_r;
#X obj 706 51 spigot;
#X obj 751 26 r playhead_oscillators;
#X obj 706 74 maxlib/scale 0 100 0 0.1;
#X obj -78 111 random 2000;
#X obj 4 112 random 2000;
#X obj -76 89 random 60000;
#X msg 263 -322 send freq1 \$1;
#X msg 388 -322 send freq2 \$1;
#X msg 263 -242 send lfo1 \$1;
#X msg 381 -242 send lfo2 \$1;
#X msg 259 -156 send volume1 \$1;
#X msg 381 -164 send volume2 \$1;
#X msg 277 -79 send time1 \$1;
#X msg 409 -82 send time2 \$1;
#X obj 263 118 netsend;
#X obj 636 -117 r net_disconnect;
#X obj 879 -226 \$1;
#X obj 879 -204 - 1;
#X obj 879 -181 * 2;
#X floatatom 879 -125 5 0 0 0 - - -, f 5;
#X obj 920 -122 + 1;
#X obj 879 -153 + 1;
#X msg 917 -229 2;
#X obj 539 147 iem_r;
#X obj 593 148 iem_r;
#X obj 537 203 iem_r;
#X obj 579 203 iem_r;
#X obj 530 261 iem_r;
#X obj 572 261 iem_r;
#X msg 530 231 set osc_vol\$1;
#X msg 529 182 set osc_am\$1;
#X msg 540 119 set osc_fr\$1;
#X obj 610 -271 t b b b b b;
#X msg 637 117 set osc_fr\$1;
#X msg 627 177 set osc_am\$1;
#X msg 627 231 set osc_vol\$1;
#X connect 1 0 41 0;
#X connect 2 0 73 0;
#X connect 3 0 73 0;
#X connect 4 0 8 0;
#X connect 5 0 8 0;
#X connect 6 0 34 0;
#X connect 7 0 34 0;
#X connect 8 0 34 0;
#X connect 9 0 11 0;
#X connect 9 1 12 0;
#X connect 11 0 10 0;
#X connect 12 0 10 0;
#X connect 13 0 66 0;
#X connect 13 0 65 0;
#X connect 14 0 67 0;
#X connect 14 0 68 0;
#X connect 15 0 69 0;
#X connect 15 0 70 0;
#X connect 24 0 37 0;
#X connect 24 0 36 0;
#X connect 24 0 62 0;
#X connect 24 0 63 0;
#X connect 24 0 64 0;
#X connect 25 0 65 0;
#X connect 25 0 33 0;
#X connect 26 0 66 0;
#X connect 27 0 69 0;
#X connect 28 0 70 0;
#X connect 29 0 67 0;
#X connect 30 0 68 0;
#X connect 31 0 71 0;
#X connect 32 0 72 0;
#X connect 34 0 3 0;
#X connect 35 0 1 0;
#X connect 36 0 23 0;
#X connect 37 0 16 0;
#X connect 37 0 20 0;
#X connect 38 0 21 0;
#X connect 38 0 22 0;
#X connect 39 0 17 0;
#X connect 39 0 19 0;
#X connect 40 0 16 0;
#X connect 40 0 20 0;
#X connect 41 0 42 0;
#X connect 41 0 46 0;
#X connect 41 0 48 0;
#X connect 42 0 45 0;
#X connect 42 0 47 0;
#X connect 43 0 50 0;
#X connect 44 0 49 0;
#X connect 45 0 43 0;
#X connect 46 0 44 0;
#X connect 47 0 52 0;
#X connect 48 0 57 0;
#X connect 49 0 22 0;
#X connect 50 0 21 0;
#X connect 51 0 91 0;
#X connect 52 0 53 0;
#X connect 53 0 54 0;
#X connect 54 0 56 0;
#X connect 55 0 54 1;
#X connect 56 0 21 0;
#X connect 57 0 58 0;
#X connect 58 0 59 0;
#X connect 59 0 61 0;
#X connect 60 0 59 1;
#X connect 61 0 22 0;
#X connect 62 0 17 0;
#X connect 63 0 19 0;
#X connect 64 0 18 0;
#X connect 65 0 73 0;
#X connect 66 0 73 0;
#X connect 67 0 73 0;
#X connect 68 0 73 0;
#X connect 69 0 73 0;
#X connect 70 0 73 0;
#X connect 71 0 73 0;
#X connect 72 0 73 0;
#X connect 73 0 9 0;
#X connect 74 0 2 0;
#X connect 75 0 76 0;
#X connect 76 0 77 0;
#X connect 77 0 80 0;
#X connect 78 0 79 0;
#X connect 78 0 90 0;
#X connect 78 0 89 0;
#X connect 78 0 88 0;
#X connect 79 0 92 0;
#X connect 79 0 93 0;
#X connect 79 0 94 0;
#X connect 80 0 78 0;
#X connect 81 0 76 0;
#X connect 82 0 17 0;
#X connect 83 0 19 0;
#X connect 84 0 16 0;
#X connect 85 0 20 0;
#X connect 86 0 21 0;
#X connect 87 0 22 0;
#X connect 88 0 86 0;
#X connect 89 0 84 0;
#X connect 90 0 82 0;
#X connect 91 0 1 0;
#X connect 91 1 4 0;
#X connect 91 2 5 0;
#X connect 91 3 7 0;
#X connect 91 4 75 0;
#X connect 92 0 83 0;
#X connect 93 0 85 0;
#X connect 94 0 87 0;
#X coords 0 -1 1 1 85 175 2 100 100;
