#N canvas 372 47 880 501 10;
#X msg 734 168 disconnect;
#X msg 693 126 connect 192.168.1.\$1 \$2;
#X obj 693 148 print;
#X obj 734 148 r net_net_disconnect;
#X msg 693 83 add2 \$1;
#X obj 693 57 \$2;
#X obj 726 56 \$3;
#X obj 758 80 r net_connect;
#X msg 693 104 100 33333;
#X msg 755 57 set;
#X obj 101 101 cnv 15 81 166 empty empty empty 20 12 0 14 -162280 -66577
0;
#X msg 363 43 send /track \$1;
#X msg 361 130 send /volume \$1;
#X msg 270 252 send /stop;
#X msg 265 131 send /play;
#X obj 110 119 vradio 13 1 0 11 empty empty empty 0 -8 0 10 -262144
-1 -1 4;
#X obj 146 120 vsl 26 126 0 1 0 0 \$0_sample_volume global_volume empty
0 -9 0 10 -233017 -1109 -166441 0 1;
#X obj 123 119 vradio 13 1 0 11 empty empty empty 0 -8 0 10 -262144
-1 -1 11;
#X msg 39 180 set 11;
#X msg 38 160 set 11;
#X floatatom 110 315 5 0 0 0 - - -, f 5;
#X floatatom 123 294 5 0 0 0 - - -, f 5;
#X obj 101 250 cnv 15 80 15 empty empty empty 20 12 0 14 -162280 -66577
0;
#X obj 110 -145 initbang;
#X msg 110 -86 set 0;
#X msg 123 -64 set 11;
#N canvas 572 351 450 300 (subpatch) 0;
#X obj 104 101 hsl 57 12 0 127 0 0 \$0-play_local_sample $_f00 play
17 6 0 8 -24198 -24198 -262144 2200 0;
#X obj 101 130 once;
#X obj 101 151 bng 15 250 50 0 empty empty empty 17 7 0 10 -262144
-1 -1;
#X obj 134 130 delay 200;
#X msg 101 78 color \$1 \$2 \$3;
#X msg 101 232 46 46 0;
#X msg 128 192 67 67 62;
#X obj 101 172 t b b;
#X obj 101 211 delay 100;
#X obj 100 28 inlet;
#X obj 100 53 bang;
#X obj 205 129 r global_play;
#X connect 0 0 1 0;
#X connect 1 0 2 0;
#X connect 2 0 3 0;
#X connect 2 0 7 0;
#X connect 3 0 1 1;
#X connect 4 0 0 0;
#X connect 5 0 4 0;
#X connect 6 0 4 0;
#X connect 7 0 8 0;
#X connect 7 1 6 0;
#X connect 8 0 5 0;
#X connect 9 0 10 0;
#X connect 10 0 0 0;
#X connect 11 0 7 0;
#X coords 0 -1 1 1 64 14 2 100 100;
#X restore 109 103 pd;
#N canvas 631 387 450 300 (subpatch) 0;
#X obj 104 101 hsl 57 12 0 127 0 0 \$0-stop_local_sample $_f00 stop
17 6 0 8 -258699 -258699 -262144 0 0;
#X obj 101 130 once;
#X obj 101 151 bng 15 250 50 0 empty empty empty 17 7 0 10 -262144
-1 -1;
#X obj 134 130 delay 200;
#X msg 101 78 color \$1 \$2 \$3;
#X obj 101 172 t b b;
#X obj 101 211 delay 100;
#X msg 101 232 433 433 0;
#X msg 127 189 461 461 111;
#X obj 102 23 inlet;
#X obj 102 48 bang;
#X obj 212 94 r global_stop;
#X connect 0 0 1 0;
#X connect 1 0 2 0;
#X connect 2 0 3 0;
#X connect 2 0 5 0;
#X connect 3 0 1 1;
#X connect 4 0 0 0;
#X connect 5 0 6 0;
#X connect 5 1 8 0;
#X connect 6 0 7 0;
#X connect 7 0 4 0;
#X connect 8 0 4 0;
#X connect 9 0 10 0;
#X connect 10 0 0 0;
#X connect 11 0 5 0;
#X coords 0 -1 1 1 64 14 2 100 100;
#X restore 109 251 pd;
#X obj 8 23 r global_track;
#X floatatom 8 45 5 0 0 0 - - -, f 5;
#X obj 123 275 + 10;
#X obj 8 65 moses 10;
#X obj 74 84 - 10;
#X obj 210 430 t b f;
#X obj 185 456 +;
#X obj 185 478 t b f;
#X obj 185 501 +;
#X obj 185 365 * -65536;
#X obj 199 388 * -256;
#X obj 210 410 * -1;
#X floatatom 185 344 5 0 0 0 - - -, f 5;
#X obj 185 324 i;
#X obj 185 305 + 100;
#X obj 185 285 * 150;
#X msg 185 522 color \$1;
#X obj 286 204 r global_stop;
#X obj 361 100 r global_volume;
#X obj 363 22 r global_track;
#X obj 485 154 r play_synchro;
#X msg 485 178 send /pst;
#X obj 467 101 r \$0_sample_volume;
#X obj 270 154 r \$0-stop_local_sample;
#X obj 265 75 r \$0-play_local_sample;
#X obj 135 -44 \$1;
#X obj 135 -6 iem_r;
#X msg 135 -25 set play_\$1;
#X obj 110 -114 t b b b;
#X obj 146 33 iem_r;
#X msg 146 14 set volume_\$1;
#X obj 8 1 iem_r;
#X msg 8 -21 set track_no_\$1;
#X obj 410 270 netsend;
#X obj 410 291 sel 1;
#X msg 410 360 color 1000 \$1 1;
#X msg 410 311 color 283;
#X msg 437 337 color 417;
#X obj 272 101 r global_play;
#X obj 556 25 \$1;
#X msg 556 49 set sampler_midi\$1;
#X obj 556 75 iem_r;
#X obj 693 31 t b b b b;
#X obj 693 9 initbang;
#X msg 246 -81 set speaker_\$1;
#X obj 246 -59 iem_r;
#X obj 564 -1 bng 15 250 50 0 empty empty empty 17 7 0 10 -262144 -1
-1;
#X obj 246 -9 maxlib/scale 0 100 0 1;
#X obj 246 -32 spigot;
#X obj 291 -57 r playhead_samplers;
#X connect 0 0 61 0;
#X connect 1 0 2 0;
#X connect 1 0 61 0;
#X connect 3 0 0 0;
#X connect 4 0 8 0;
#X connect 5 0 4 0;
#X connect 6 0 4 0;
#X connect 7 0 8 0;
#X connect 8 0 1 0;
#X connect 9 0 8 0;
#X connect 11 0 61 0;
#X connect 12 0 61 0;
#X connect 13 0 61 0;
#X connect 14 0 61 0;
#X connect 15 0 18 0;
#X connect 15 0 20 0;
#X connect 17 0 19 0;
#X connect 17 0 30 0;
#X connect 18 0 17 0;
#X connect 19 0 15 0;
#X connect 20 0 11 0;
#X connect 21 0 11 0;
#X connect 23 0 56 0;
#X connect 24 0 15 0;
#X connect 25 0 17 0;
#X connect 28 0 29 0;
#X connect 29 0 31 0;
#X connect 30 0 21 0;
#X connect 31 0 15 0;
#X connect 31 1 32 0;
#X connect 32 0 17 0;
#X connect 33 0 34 0;
#X connect 33 1 34 1;
#X connect 34 0 35 0;
#X connect 35 0 36 0;
#X connect 35 1 36 1;
#X connect 36 0 44 0;
#X connect 37 0 36 0;
#X connect 38 0 34 0;
#X connect 39 0 33 0;
#X connect 40 0 37 0;
#X connect 40 0 38 0;
#X connect 40 0 39 0;
#X connect 41 0 40 0;
#X connect 42 0 41 0;
#X connect 43 0 42 0;
#X connect 45 0 13 0;
#X connect 46 0 12 0;
#X connect 47 0 11 0;
#X connect 48 0 49 0;
#X connect 49 0 61 0;
#X connect 50 0 12 0;
#X connect 51 0 13 0;
#X connect 52 0 14 0;
#X connect 53 0 55 0;
#X connect 53 0 58 0;
#X connect 53 0 60 0;
#X connect 54 0 26 0;
#X connect 55 0 54 0;
#X connect 56 0 24 0;
#X connect 56 1 25 0;
#X connect 56 2 53 0;
#X connect 57 0 16 0;
#X connect 58 0 57 0;
#X connect 59 0 29 0;
#X connect 60 0 59 0;
#X connect 61 0 62 0;
#X connect 62 0 64 0;
#X connect 62 1 65 0;
#X connect 63 0 16 0;
#X connect 64 0 63 0;
#X connect 65 0 63 0;
#X connect 66 0 14 0;
#X connect 67 0 68 0;
#X connect 67 0 72 0;
#X connect 68 0 69 0;
#X connect 69 0 16 0;
#X connect 70 0 5 0;
#X connect 70 1 6 0;
#X connect 70 2 9 0;
#X connect 70 3 67 0;
#X connect 71 0 70 0;
#X connect 72 0 73 0;
#X connect 73 0 76 0;
#X connect 74 0 67 0;
#X connect 75 0 16 0;
#X connect 76 0 75 0;
#X connect 77 0 76 1;
#X coords 0 -1 1 1 83 167 2 100 100;
