#N canvas 315 404 450 244 10;
#X obj 152 79 \$1;
#X obj 154 45 bng 15 250 50 0 empty empty empty 17 7 0 10 -262144 -1
-1;
#X obj 116 274 iem_s;
#X floatatom 106 107 5 0 0 0 - - -, f 5;
#X obj 158 13 initbang;
#X obj 99 166 openpanel;
#X obj 100 142 bng 15 250 50 0 empty empty empty 17 7 0 10 -262144
-1 -1;
#X symbolatom 121 142 10 0 0 0 - - -, f 10;
#X obj 236 40 r play_all_sf;
#X obj 143 107 bng 15 250 50 0 empty empty empty 17 7 0 10 -262144
-1 -1;
#X obj 165 108 bng 15 250 50 0 empty empty empty 17 7 0 10 -262144
-1 -1;
#X obj 237 65 r stop_all_sf;
#X obj 99 186 splitfilename /;
#N canvas 68 141 519 354 preset 0;
#X obj 149 102 \$1;
#X floatatom 137 132 5 0 0 0 - - -, f 5;
#X obj 148 77 bng 15 250 50 0 empty empty empty 17 7 0 10 -262144 -1
-1;
#X connect 0 0 1 0;
#X connect 2 0 0 0;
#X restore 348 41 pd preset;
#X msg 143 251 set sf_sample\$1;
#X floatatom 273 98 5 0 0 0 - - -, f 5;
#X obj 229 163 iem_r;
#X msg 230 126 set sf_preset\$1;
#X connect 0 0 14 0;
#X connect 0 0 3 0;
#X connect 0 0 15 0;
#X connect 0 0 17 0;
#X connect 1 0 0 0;
#X connect 3 0 2 0;
#X connect 4 0 1 0;
#X connect 5 0 12 0;
#X connect 6 0 5 0;
#X connect 7 0 2 0;
#X connect 8 0 9 0;
#X connect 11 0 10 0;
#X connect 12 1 7 0;
#X connect 14 0 2 1;
#X connect 16 0 7 0;
#X connect 17 0 16 0;
#X coords 0 -1 1 1 85 60 2 100 100;
