#N canvas 655 244 492 579 10;
#X obj 173 102 tgl 15 0 \$0-foo \$0-is_active empty 17 7 0 10 -66577
-262144 -262144 0 1;
#X obj 102 102 cnv 15 14 15 empty \$0-speaker_no 6 1 8 0 10 -69569
-262144 0;
#X obj 102 118 cnv 15 86 14 empty \$0-sample_name float 1 8 0 10 -69569
-262144 0;
#X obj 173 133 cnv 15 14 15 empty \$0-net_conn empty 1 8 0 10 -24198
-262144 0;
#X obj 102 133 cnv 15 40 15 empty \$0-text_cnv_ip 102: 1 8 0 10 -128992
-262144 0;
#X obj 136 133 cnv 15 36 15 empty \$0-text_cnv_port 10001 1 8 0 10
-128992 -262144 0;
#X obj 41 447 udpsend;
#X msg 82 416 disconnect;
#X msg 41 374 connect 192.168.1.\$1 \$2;
#X obj 82 396 r net_net_disconnect;
#X obj 68 301 r net_connect;
#X msg 41 228 set;
#X msg 41 327 add2 \$1;
#X obj 41 540 s \$0-net_conn;
#X msg 41 516 color \$1;
#X obj 41 469 sel 1;
#X msg 67 490 133;
#X msg 41 490 136;
#X obj 41 207 r \$0-init;
#X obj 57 250 r \$0-ip;
#X obj 62 276 r \$0-port;
#X msg 41 351 102 10001;
#N canvas 651 223 696 684 calculate_distance 0;
#X obj 399 101 iem_r;
#X obj 169 96 iem_r;
#X msg 169 75 set speaker_x-\$1;
#X msg 399 80 set speaker_y-\$1;
#X obj 129 292 <;
#X obj 54 130 expr sqrt(pow(abs($f1 - $f2) \, 2) + pow(abs($f3 - $f4)
\, 2));
#X obj 54 366 spigot;
#X obj 54 483 i;
#X obj 54 505 change;
#N canvas 227 364 450 300 send_dist 0;
#X obj 162 88 inlet;
#X obj 162 109 t b f;
#X msg 162 176 label dist:409;
#X obj 189 132 makefilename %d;
#X obj 162 199 send \$0-text_cnv_dist;
#X msg 189 152 set label dist:\$1;
#X connect 0 0 1 0;
#X connect 1 0 2 0;
#X connect 1 1 3 0;
#X connect 2 0 4 0;
#X connect 3 0 5 0;
#X connect 5 0 2 0;
#X restore 72 157 pd send_dist;
#X obj 168 340 s \$0-is_active;
#X obj 54 221 t f f;
#X obj 148 431 sel 0;
#X obj 129 314 t f f f;
#X msg 148 452 0;
#X obj 54 614 iem_s;
#X obj 81 572 r \$0-speaker_no;
#X msg 81 594 set speaker_\$1;
#X obj 144 268 t f f;
#X obj 54 397 maxlib/scale 0 0 100 0;
#X obj 54 102 iem_r;
#X obj 284 105 iem_r;
#X msg 54 75 set head_x\$1;
#X msg 284 77 set head_y\$1;
#X obj 144 243 iem_r;
#X msg 144 220 set radius_\$1;
#X obj 284 55 r \$0-row;
#X obj 54 52 r \$0-row;
#X obj 144 198 r \$0-row, f 9;
#X obj 169 52 r \$0-id;
#X obj 399 58 r \$0-id;
#X obj 69 542 s \$0-distance;
#X connect 0 0 5 3;
#X connect 1 0 5 1;
#X connect 2 0 1 0;
#X connect 3 0 0 0;
#X connect 4 0 13 0;
#X connect 5 0 9 0;
#X connect 5 0 11 0;
#X connect 6 0 19 0;
#X connect 7 0 8 0;
#X connect 8 0 15 0;
#X connect 8 0 31 0;
#X connect 11 0 6 0;
#X connect 11 1 4 0;
#X connect 12 0 14 0;
#X connect 13 0 6 1;
#X connect 13 1 12 0;
#X connect 13 2 10 0;
#X connect 14 0 7 0;
#X connect 16 0 17 0;
#X connect 17 0 15 1;
#X connect 18 0 4 1;
#X connect 18 1 19 2;
#X connect 19 0 7 0;
#X connect 20 0 5 0;
#X connect 21 0 5 2;
#X connect 22 0 20 0;
#X connect 23 0 21 0;
#X connect 24 0 18 0;
#X connect 25 0 24 0;
#X connect 26 0 23 0;
#X connect 27 0 22 0;
#X connect 28 0 25 0;
#X connect 29 0 2 0;
#X connect 30 0 3 0;
#X restore 26 39 pd calculate_distance;
#X obj 109 443 r \$0-distance;
#X floatatom 110 469 5 0 0 0 - - -, f 5;
#X obj 183 57 iem_r;
#X obj 183 6 r \$0-row;
#X obj 116 102 cnv 15 56 15 empty \$0-text_cnv_dist dist:409 1 8 0
10 -69569 -262144 0;
#X obj 282 293 list fromsymbol;
#X obj 282 338 list tosymbol;
#X obj 282 271 symbol;
#X msg 281 401 label float;
#X msg 281 358 set label \$1;
#X obj 281 423 send \$0-sample_name;
#X obj 281 378 t b a;
#X obj 282 315 list split 13;
#X msg 313 173 kuikikuku.wav;
#X msg 309 198 asdasdaasdasasdasdas;
#X msg 316 125 mm;
#N canvas 492 165 827 542 init 0;
#X obj 104 412 \$1;
#X obj 119 315 \$2;
#X obj 135 222 \$3;
#N canvas 374 165 450 300 send_no 0;
#X obj 149 71 inlet;
#X obj 149 93 t b f;
#X msg 149 160 label 6;
#X msg 176 136 set label \$1;
#X obj 176 116 makefilename %d;
#X obj 149 183 send \$0-speaker_no;
#X connect 0 0 1 0;
#X connect 1 0 2 0;
#X connect 1 1 4 0;
#X connect 2 0 5 0;
#X connect 3 0 2 0;
#X connect 4 0 3 0;
#X restore 131 458 pd send_no;
#N canvas 580 203 450 300 send_port 0;
#X obj 149 71 inlet;
#X obj 149 93 t b f;
#X obj 176 116 makefilename %d;
#X obj 149 183 send \$0-text_cnv_port;
#X msg 176 136 set label \$1;
#X msg 149 160 label 10001;
#X connect 0 0 1 0;
#X connect 1 0 5 0;
#X connect 1 1 2 0;
#X connect 2 0 4 0;
#X connect 4 0 5 0;
#X connect 5 0 3 0;
#X restore 146 360 pd send_port;
#N canvas 698 244 450 300 send_ip 0;
#X obj 149 71 inlet;
#X obj 149 93 t b f;
#X obj 176 116 makefilename %d;
#X obj 149 183 send \$0-text_cnv_ip;
#X msg 149 160 label 102:;
#X msg 176 135 set label \$1:;
#X floatatom 205 81 5 0 0 0 - - -, f 5;
#X connect 0 0 1 0;
#X connect 1 0 4 0;
#X connect 1 1 2 0;
#X connect 2 0 5 0;
#X connect 4 0 3 0;
#X connect 5 0 4 0;
#X connect 6 0 2 0;
#X restore 162 267 pd send_ip;
#X obj 104 68 initbang;
#X obj 135 243 t f f;
#X obj 135 289 s \$0-ip;
#X obj 119 339 t f f;
#X obj 119 381 s \$0-port;
#X obj 151 131 \$4;
#X obj 167 112 s \$0-init;
#X obj 235 216 sendcanvas;
#N canvas 928 711 450 300 \$0-preset 0;
#X restore 399 390 pd \$0-preset;
#X msg 266 381 \; pd-\$1-preset clear;
#X obj 266 362 \$0;
#X obj 266 338 bng 15 250 50 0 empty empty empty 17 7 0 10 -262144
-1 -1;
#X obj 159 68 bng 15 250 50 0 empty empty empty 17 7 0 10 -262144 -1
-1;
#X obj 151 195 s \$0-row;
#X obj 104 485 s \$0-id;
#X obj 104 435 t f f;
#X obj 104 90 t b b b b b;
#X msg 235 192 obj 250 10 namecanvas preset-\$1;
#X msg 452 192 obj 250 30 pd preset-1;
#X text 270 450 bude treba oddelit \$1...\$4 pro initbang a loadbang
;
#X text 269 463 aby se vickrat negeneroval objekt namecanvas;
#X text 270 436 loadbang bude treba kvuli re-inicializaci po nahrani?
;
#X obj 151 159 t f f;
#X text 86 43 \$1-id \$2-port \$3-ip \$4-row;
#N canvas 1021 535 385 374 pick_col 0;
#X obj 44 22 inlet;
#X msg 44 97 290;
#X msg 58 119 970;
#X msg 71 97 990;
#X msg 83 119 79;
#X msg 98 97 930;
#X msg 111 119 9;
#X msg 125 97 460;
#X msg 152 97 628;
#X msg 164 119 778;
#X obj 44 167 f;
#X obj 44 48 mod 10;
#X msg 139 119 690;
#N canvas 434 131 353 566 convert_color 0;
#X obj 144 115 div 10;
#X obj 224 115 mod 10;
#X obj 64 71 div 100;
#X obj 143 72 mod 100;
#X obj 144 93 t f f;
#X obj 64 247 i;
#X obj 144 247 i;
#X obj 224 247 i;
#X obj 64 225 + 0.5;
#X obj 144 225 + 0.5;
#X obj 224 225 + 0.5;
#X obj 64 137 sel 9;
#X obj 64 159 8;
#X obj 144 137 sel 9;
#X obj 144 159 8;
#X obj 224 137 sel 9;
#X obj 224 159 8;
#X obj 64 181 / 8;
#X obj 144 181 / 8;
#X obj 224 181 / 8;
#X obj 64 203 * 255;
#X obj 144 203 * 255;
#X obj 224 203 * 255;
#X obj 64 50 t f f;
#X obj 64 26 inlet;
#X obj 224 290 t b f;
#X obj 144 341 +, f 2;
#X obj 144 364 t b f;
#X obj 144 395 +;
#X obj 64 269 * -65536;
#X obj 144 268 * -256;
#X obj 224 270 * -1;
#X obj 144 417 - 1;
#X obj 144 440 pack 0 0 0;
#X obj 144 462 outlet;
#X connect 0 0 13 0;
#X connect 1 0 15 0;
#X connect 2 0 11 0;
#X connect 3 0 4 0;
#X connect 4 0 0 0;
#X connect 4 1 1 0;
#X connect 5 0 29 0;
#X connect 6 0 30 0;
#X connect 7 0 31 0;
#X connect 8 0 5 0;
#X connect 9 0 6 0;
#X connect 10 0 7 0;
#X connect 11 0 12 0;
#X connect 11 1 17 0;
#X connect 12 0 17 0;
#X connect 13 0 14 0;
#X connect 13 1 18 0;
#X connect 14 0 18 0;
#X connect 15 0 16 0;
#X connect 15 1 19 0;
#X connect 16 0 19 0;
#X connect 17 0 20 0;
#X connect 18 0 21 0;
#X connect 19 0 22 0;
#X connect 20 0 8 0;
#X connect 21 0 9 0;
#X connect 22 0 10 0;
#X connect 23 0 2 0;
#X connect 23 1 3 0;
#X connect 24 0 23 0;
#X connect 25 0 26 0;
#X connect 25 1 26 1;
#X connect 26 0 27 0;
#X connect 27 0 28 0;
#X connect 27 1 28 1;
#X connect 28 0 32 0;
#X connect 29 0 28 0;
#X connect 30 0 26 0;
#X connect 31 0 25 0;
#X connect 32 0 33 0;
#X connect 33 0 34 0;
#X restore 44 198 pd convert_color;
#X obj 44 253 s \$0-speaker_no;
#X obj 145 253 s \$0-text_cnv_dist;
#X msg 44 223 color \$1 \$2 \$3;
#X obj 44 71 sel 1 2 3 4 5 6 7 8 9 10;
#X obj 262 253 s \$0-speaker_col;
#X connect 0 0 11 0;
#X connect 1 0 10 0;
#X connect 2 0 10 0;
#X connect 3 0 10 0;
#X connect 4 0 10 0;
#X connect 5 0 10 0;
#X connect 6 0 10 0;
#X connect 7 0 10 0;
#X connect 8 0 10 0;
#X connect 9 0 10 0;
#X connect 10 0 13 0;
#X connect 11 0 17 0;
#X connect 12 0 10 0;
#X connect 13 0 16 0;
#X connect 16 0 14 0;
#X connect 16 0 15 0;
#X connect 16 0 18 0;
#X connect 17 0 1 0;
#X connect 17 1 2 0;
#X connect 17 2 3 0;
#X connect 17 3 4 0;
#X connect 17 4 5 0;
#X connect 17 5 6 0;
#X connect 17 6 7 0;
#X connect 17 7 12 0;
#X connect 17 8 8 0;
#X connect 17 9 9 0;
#X restore 393 86 pd pick_col;
#X obj 393 65 r \$0-row;
#X floatatom 190 226 5 0 0 0 - - -, f 5;
#X obj 250 14 namecanvas preset-1;
#X connect 0 0 21 0;
#X connect 1 0 9 0;
#X connect 2 0 7 0;
#X connect 6 0 22 0;
#X connect 7 0 8 0;
#X connect 7 1 5 0;
#X connect 9 0 10 0;
#X connect 9 1 4 0;
#X connect 11 0 28 0;
#X connect 16 0 15 0;
#X connect 17 0 16 0;
#X connect 18 0 22 0;
#X connect 21 0 20 0;
#X connect 21 1 3 0;
#X connect 22 0 0 0;
#X connect 22 1 1 0;
#X connect 22 2 2 0;
#X connect 22 3 11 0;
#X connect 22 4 12 0;
#X connect 23 0 13 0;
#X connect 24 0 13 0;
#X connect 28 0 19 0;
#X connect 28 0 32 0;
#X connect 28 1 23 0;
#X connect 31 0 30 0;
#X restore 26 17 pd init;
#X obj 352 138 l2s;
#X floatatom 352 118 5 0 0 0 - - -, f 5;
#X msg 183 29 set sf_sample\$1;
#X obj 336 400 r \$0-speaker_col;
#X connect 6 0 15 0;
#X connect 7 0 6 0;
#X connect 8 0 6 0;
#X connect 9 0 7 0;
#X connect 10 0 21 0;
#X connect 11 0 21 0;
#X connect 12 0 21 0;
#X connect 14 0 13 0;
#X connect 15 0 17 0;
#X connect 15 1 16 0;
#X connect 16 0 14 0;
#X connect 17 0 14 0;
#X connect 18 0 11 0;
#X connect 19 0 12 0;
#X connect 20 0 12 0;
#X connect 21 0 8 0;
#X connect 23 0 24 0;
#X connect 25 0 30 0;
#X connect 26 0 42 0;
#X connect 28 0 35 0;
#X connect 29 0 32 0;
#X connect 30 0 28 0;
#X connect 31 0 33 0;
#X connect 32 0 34 0;
#X connect 34 0 31 0;
#X connect 34 1 31 0;
#X connect 35 0 29 0;
#X connect 35 2 29 0;
#X connect 36 0 30 0;
#X connect 37 0 30 0;
#X connect 38 0 30 0;
#X connect 40 0 30 0;
#X connect 41 0 40 0;
#X connect 42 0 25 0;
#X connect 43 0 33 0;
#X coords 0 -1 1 1 90 50 2 100 100;
