#N canvas 722 341 470 426 10;
#X msg 102 98 traverse pd-speaker_field;
#X msg 75 180 next;
#X obj 75 151 uzi;
#X obj 75 47 initbang;
#X obj 75 98 \$1;
#X obj 75 75 t b b;
#X obj 75 209 pointer;
#X obj 75 235 get head x y rad;
#X floatatom 75 268 5 0 0 0 - - -, f 5;
#X obj 75 317 iem_s;
#X msg 102 289 set head_x\$1;
#X floatatom 120 329 5 0 0 0 - - -, f 5;
#X obj 120 381 iem_s;
#X msg 147 350 set head_y\$1;
#X floatatom 168 268 5 0 0 0 - - -, f 5;
#X obj 168 320 iem_s;
#X msg 195 293 set radius_\$1;
#X obj 75 122 t b f f f f;
#X text 179 236 poll out coords and rad from head;
#X obj 160 122 r poll_out_head;
#X connect 0 0 6 0;
#X connect 1 0 6 0;
#X connect 2 0 1 0;
#X connect 3 0 5 0;
#X connect 4 0 17 0;
#X connect 5 0 4 0;
#X connect 5 1 0 0;
#X connect 6 0 7 0;
#X connect 7 0 8 0;
#X connect 7 1 11 0;
#X connect 7 2 14 0;
#X connect 8 0 9 0;
#X connect 10 0 9 1;
#X connect 11 0 12 0;
#X connect 13 0 12 1;
#X connect 14 0 15 0;
#X connect 16 0 15 1;
#X connect 17 0 2 0;
#X connect 17 1 2 1;
#X connect 17 2 10 0;
#X connect 17 3 13 0;
#X connect 17 4 16 0;
#X connect 19 0 6 0;
